<svg transform="scale(1)" version="1.1" id="Layer_1" xmlns="http://www.w3.org/2000/svg" xmlns:xlink="http://www.w3.org/1999/xlink" x="0px" y="0px" viewBox="0 0 500 500" xml:space="preserve" class="show_show__wrapper__graphic__5Waiy "><title>React</title><style type="text/css">
	.st0{fill:#FFFFFF;}
	.st1{fill:#093F68;}
	.st2{fill:#FFBC0E;}
	.st3{fill:#68E1FD;}
</style><g id="circle"><path class="st0" d="M427.6,250c0,59.6-29.9,115.3-79.7,148.2c-6.7,4.4-13.6,8.4-20.9,11.8c-5.7,2.8-11.6,5.2-17.6,7.4
		c-38.4,13.6-80.3,13.6-118.7,0c-6-2.1-11.9-4.6-17.6-7.4c-13.6-6.5-26.2-14.7-37.7-24.4c-74.9-63.3-84.2-175.4-20.9-250.2
		c15.8-18.7,35.2-33.9,57.2-44.6l0,0c43.1-21.1,92.8-24,138-7.9h0.1C380.4,108,427.6,174.9,427.6,250z"></path><path class="st1" d="M250,429.6c-20.5,0-40.8-3.5-60.1-10.3c-13.7-4.9-26.8-11.4-38.9-19.4c-5.9-3.9-11.6-8.2-17-12.8
		C58.3,323,48.8,209.7,112.9,134c15.9-18.8,35.5-34.2,57.6-45.1l0.1-0.1c43.5-21.4,93.9-24.2,139.6-8h0.1l0,0
		c93.4,33.4,142.1,136.2,108.8,229.6c-13.1,36.6-37.7,68-70.1,89.5c-6.8,4.5-13.8,8.5-21.1,12c-5.8,2.8-11.7,5.3-17.8,7.5
		C290.8,426.2,270.5,429.6,250,429.6z M172.7,92.4l-0.2,0.1c-87,42.8-122.7,148.1-79.9,235c13.8,27.9,34.7,51.7,60.7,68.9
		c11.9,7.8,24.6,14.2,38,19c38,13.4,79.4,13.4,117.4,0c13.4-4.8,26.2-11.2,38-19c80.9-53.4,103.1-162.3,49.7-243.2
		c-20.9-31.7-51.6-55.8-87.4-68.5h-0.1C264.3,68.8,215.2,71.6,172.7,92.4L172.7,92.4z"></path></g><g id="character"><rect class="st2" x="237.1" y="271.5" width="25.6" height="33.5"></rect><path class="st1" d="M262.7,307h-25.6c-1.1,0-2.1-0.9-2.1-2.1v-33.5c0-1.1,0.9-2.1,2.1-2.1h25.6c1.1,0,2.1,0.9,2.1,2.1v33.5
		C264.7,306.1,263.8,307,262.7,307z M239.1,302.9h21.5v-29.4h-21.5V302.9z"></path><path class="st2" d="M150.8,249.6v0.2c-14.2-3-7.6,14.6-20.4,8.3c-6.3-3-8.9,12.4-14.8,8.6l-49.2-88.1c0,0-17.4-14.3-18.2-26.6
		s10.7-24.4,16.7-22.7c3.6,1,17.4,22.8,17.4,22.8c2.8-19.3,7.6-19.3,11.5-16.5s-1.3,30.8-1.3,30.8l13.9,18.8l40.2,54.2
		C148.9,242.5,150.3,246,150.8,249.6z"></path><path class="st1" d="M117.4,269.5c-1.1,0-2.1-0.4-2.9-1c-0.3-0.2-0.5-0.4-0.7-0.7l-49-87.8c-2.5-2.1-17.9-15.5-18.7-27.8
		c-0.6-9,4.8-17.6,10-21.8c3.3-2.7,6.7-3.7,9.3-3c3.2,0.9,10.4,11,15.7,19.2c1.6-8.2,3.9-12.5,7.1-13.9c2.1-0.9,4.3-0.4,6.7,1.2
		c4.2,3,1.7,20.9-0.3,32l53.7,72.3c2.4,3.2,4,7,4.5,10.9l0,0v0.2c0.2,1.1-0.6,2.2-1.8,2.3c-0.2,0-0.5,0-0.7,0
		c-5.5-1.2-6.8,1.1-8.4,4.3s-4.2,7.9-12.5,3.9c-1.4-0.6-2.5,0.5-5,3.9C122.8,266.3,120.5,269.5,117.4,269.5z M117.1,265.3
		c0.8,0.3,1.8-0.5,4.1-3.7s5.4-7.5,10.1-5.2c4.7,2.3,5.3,1.1,7-2.1c1.5-2.8,3.7-7,9.9-6.8c-0.6-2.4-1.8-4.6-3.3-6.6l-54.2-73
		c-0.3-0.5-0.5-1-0.4-1.6c2.2-12.3,3.6-26.8,2-28.8c-1.6-1.1-2.3-0.8-2.6-0.7c-1,0.4-3.6,2.9-5.5,16c-0.2,1.1-1.2,1.9-2.4,1.7
		c-0.6-0.1-1.1-0.4-1.4-0.9c-6.2-9.8-14.2-21-16.3-22c-1.2-0.4-3.4,0.5-5.6,2.2c-4.4,3.6-9,10.8-8.5,18.3
		c0.8,11.2,17.3,25,17.5,25.1c0.2,0.2,0.4,0.4,0.5,0.6L117.1,265.3z"></path><path class="st1" d="M74,171.1c-0.8,0-1.6-0.5-1.9-1.2c-2.5-5.9-2.7-10.7-0.4-14.2c3.3-5.1,10.2-5.4,10.5-5.4c1.1,0,2.1,0.9,2.1,2
		c0,1.1-0.9,2.1-2,2.1c-0.1,0-5.1,0.2-7.2,3.5c-1.5,2.3-1.2,5.8,0.7,10.4c0.5,1,0,2.3-1.1,2.7c0,0,0,0,0,0
		C74.6,171.1,74.3,171.1,74,171.1z"></path><path class="st2" d="M349.2,249.6v0.2c14.2-3,7.6,14.6,20.4,8.3c6.3-3,9,12.4,14.9,8.6l49.2-88.1c0,0,17.4-14.3,18.2-26.6
		s-10.6-24.4-16.7-22.7c-3.6,1-17.4,22.8-17.4,22.8c-2.8-19.3-7.6-19.3-11.5-16.5s1.3,30.8,1.3,30.8l-13.9,18.8l-40.2,54.2
		C351.1,242.5,349.7,246,349.2,249.6z"></path><path class="st1" d="M382.6,269.5c-3.1,0-5.5-3.2-7.1-5.5c-2.5-3.5-3.6-4.6-5-3.9c-8.2,4-10.8-0.8-12.5-3.9s-2.9-5.4-8.4-4.3
		c-1.1,0.2-2.2-0.5-2.4-1.6c0-0.2-0.1-0.5,0-0.7v-0.2l0,0c0.5-4,2.1-7.8,4.6-11l53.6-72.3c-2-11.1-4.4-29-0.3-32
		c2.4-1.7,4.7-2.1,6.7-1.3c3.2,1.4,5.5,5.7,7.1,13.9c5.4-8.2,12.5-18.3,15.7-19.2c2.7-0.8,6,0.3,9.4,3c5.2,4.2,10.6,12.8,10,21.8
		c-0.8,12.2-16.2,25.7-18.7,27.8l-49,87.8c-0.2,0.3-0.4,0.5-0.7,0.7C384.7,269.1,383.7,269.5,382.6,269.5z M371.2,255.7
		c3.3,0,5.7,3.3,7.6,5.9c2.4,3.3,3.3,4,4.1,3.7l48.9-87.6c0.1-0.2,0.3-0.4,0.5-0.6c0.2-0.1,16.8-13.9,17.5-25.1
		c0.5-7.5-4-14.7-8.5-18.3c-2.2-1.7-4.3-2.6-5.6-2.2c-2,0.9-10,12.1-16.3,21.9c-0.6,1-1.9,1.2-2.9,0.6c-0.5-0.3-0.8-0.8-0.9-1.4
		c-1.9-13.1-4.5-15.5-5.5-16c-0.2-0.1-1-0.4-2.7,0.8c-1.5,1.9-0.1,16.5,2.1,28.7c0.1,0.6,0,1.1-0.4,1.6l-54.2,73
		c-1.5,2-2.6,4.2-3.3,6.6c6.2-0.2,8.4,3.9,10,6.8c1.7,3.2,2.3,4.4,7,2.1C369.5,255.9,370.4,255.7,371.2,255.7L371.2,255.7z"></path><path class="st1" d="M426,171.1c-0.3,0-0.6-0.1-0.8-0.2c-1-0.4-1.5-1.7-1.1-2.7c0,0,0,0,0,0c2-4.6,2.2-8,0.7-10.4
		c-2.1-3.3-7.1-3.5-7.1-3.5c-1.1,0-2-1-2-2.1c0,0,0,0,0,0c0-1.1,0.9-2,2-2c0,0,0.1,0,0.1,0c0.3,0,7.2,0.3,10.5,5.4
		c2.3,3.5,2.1,8.3-0.4,14.2C427.6,170.6,426.8,171.1,426,171.1z"></path><path class="st3" d="M326.8,364.1c0.1,2.3,0.2,4.7,0.2,7.1V410c-5.7,2.8-11.6,5.2-17.6,7.4C271,431,229,431,190.6,417.4
		c-6-2.1-11.9-4.6-17.6-7.4v-38.8c0-2.5,0.1-5,0.3-7.5L101,261.7l52.2-33.9c0,0,66.9,64.5,72,64.5H275c5.2,0,72-64,72-64l52.2,33.9
		L326.8,364.1z"></path><path class="st1" d="M250,429.6c-20.5,0-40.8-3.5-60.1-10.3c-6.1-2.1-12-4.6-17.8-7.5c-0.7-0.4-1.1-1.1-1.1-1.8v-38.8
		c0-2.2,0.1-4.4,0.2-6.9l-72-101.5c-0.7-0.9-0.5-2.2,0.5-2.9c0,0,0.1,0,0.1-0.1l52.2-33.9c0.8-0.5,1.9-0.4,2.6,0.2
		c24.7,23.8,65.5,61.9,70.7,63.9h49.4c5.3-1.9,46.1-39.8,70.7-63.4c0.7-0.7,1.7-0.8,2.5-0.2l52.2,33.9c0.5,0.3,0.8,0.8,0.9,1.3
		c0.1,0.6,0,1.1-0.4,1.6l-71.9,101.4c0.1,2.2,0.2,4.4,0.2,6.5V410c0,0.8-0.4,1.5-1.1,1.9c-5.8,2.8-11.8,5.3-17.8,7.5
		C290.8,426.2,270.5,429.6,250,429.6z M175.1,408.7c5.3,2.5,10.7,4.8,16.2,6.7c38,13.4,79.4,13.4,117.4,0c5.5-2,11-4.2,16.2-6.7
		v-37.5c0-2.3-0.1-4.5-0.2-7c0-0.5,0.1-0.9,0.4-1.3l71-100.2l-49-31.8c-25.3,24.2-67.1,63.5-72.2,63.5h-49.8
		c-5,0-46.9-39.5-72.2-63.9l-49,31.8L175,362.5c0.3,0.4,0.4,0.9,0.4,1.3c-0.2,2.6-0.3,5.1-0.3,7.4L175.1,408.7z M327,410L327,410z"></path><polygon class="st1" points="250,360.3 229.1,292.3 270.9,292.3 	"></polygon><path class="st1" d="M250,362.4c-0.9,0-1.7-0.6-2-1.5l-20.9-68c-0.2-0.6-0.1-1.3,0.3-1.8c0.4-0.5,1-0.8,1.7-0.8h41.7
		c0.7,0,1.3,0.3,1.7,0.8c0.4,0.5,0.5,1.2,0.3,1.8l-20.9,68C251.7,361.8,250.9,362.4,250,362.4z M231.9,294.4l18.1,58.9l18.1-58.9
		L231.9,294.4z"></path><circle class="st2" cx="245.5" cy="194.2" r="108.9"></circle><path class="st1" d="M245.4,305.1c-61.3,0-110.9-49.7-110.9-110.9S184.2,83.2,245.5,83.2s110.9,49.7,110.9,110.9
		C356.3,255.4,306.7,305.1,245.4,305.1z M245.4,87.4c-59,0-106.8,47.8-106.8,106.8S186.5,301,245.5,301s106.8-47.8,106.8-106.8
		c0,0,0,0,0,0C352.2,135.2,304.4,87.4,245.4,87.4z"></path><path class="st1" d="M228.6,177.4c-1.7,0-3.1-1.4-3.1-3.1c0-8-5-14.5-11.2-14.5s-11.2,6.5-11.2,14.5c-0.1,1.7-1.6,3-3.3,2.9
		c-1.6-0.1-2.8-1.3-2.9-2.9c0-11.4,7.8-20.7,17.4-20.7s17.4,9.3,17.4,20.7C231.7,176,230.4,177.4,228.6,177.4
		C228.6,177.4,228.6,177.4,228.6,177.4z"></path><path class="st1" d="M290.8,177.4c-1.7,0-3.1-1.4-3.1-3.1c0,0,0,0,0,0c0-8-5-14.5-11.2-14.5s-11.2,6.5-11.2,14.5
		c-0.1,1.7-1.6,3-3.3,2.9c-1.6-0.1-2.8-1.3-2.9-2.9c0-11.4,7.8-20.7,17.4-20.7s17.4,9.3,17.4,20.7
		C293.9,176,292.5,177.4,290.8,177.4z"></path><path class="st1" d="M245.4,267.5c-36.8-0.1-68.5-26-75.9-62c-0.3-1.7,0.7-3.3,2.4-3.6c1.7-0.3,3.3,0.7,3.6,2.4
		c7.9,38.6,45.6,63.5,84.1,55.6c28-5.7,49.9-27.6,55.6-55.6c0.3-1.7,2-2.8,3.6-2.4c1.7,0.3,2.8,2,2.4,3.6
		C313.9,241.5,282.2,267.4,245.4,267.5z"></path><path class="st1" d="M250,429.6c-1.1,0-2.1-0.9-2.1-2.1v-67.2c0-1.1,0.9-2.1,2.1-2.1c1.1,0,2.1,0.9,2.1,2.1c0,0,0,0,0,0v67.2
		C252.1,428.7,251.1,429.6,250,429.6z"></path><path class="st1" d="M284.2,405.1c-0.4,0-0.8-0.1-1.1-0.3l-13.3-8.7c-0.6-0.4-0.9-1-0.9-1.7v-26.6c0-1.1,0.9-2.1,2.1-2.1h26.6
		c1.1,0,2.1,0.9,2.1,2.1v26.6c0,0.7-0.4,1.3-0.9,1.7l-13.3,8.7C285,405,284.6,405.2,284.2,405.1z M272.9,393.2l11.3,7.4l11.3-7.4
		v-23.5h-22.5V393.2z"></path></g></svg>