<svg transform="scale(1)" version="1.1" id="Layer_1" xmlns="http://www.w3.org/2000/svg" xmlns:xlink="http://www.w3.org/1999/xlink" x="0px" y="0px" viewBox="0 0 500 500" xml:space="preserve" class="show_show__wrapper__graphic__5Waiy "><title>React</title><style type="text/css">
	.st0{fill:#68E1FD;}
	.st1{fill:#093F68;}
	.st2{fill:#FFFFFF;}
	.st3{fill:#FFC9B0;}
	.st4{fill:#70CC40;}
</style><g id="money-bag"><path class="st0" d="M291.8,133.5l22.6-36.7h-79.5l22.6,36.7c-39.2,12.9-68.7,67.4-68.7,106.7c0,44.9,38.4,53,85.9,53
		s85.9-8.1,85.9-53C360.5,200.9,331,146.4,291.8,133.5z"></path><path class="st1" d="M274.7,295c-28.7,0-47.6-3-61.5-9.9c-17.6-8.6-26.2-23.4-26.2-44.9c0-19.7,7.4-43.7,19.9-64.2
		c13.1-21.5,30-36.9,47.9-43.5l-21.4-34.8c-0.5-0.9-0.2-2,0.6-2.5c0.3-0.2,0.6-0.3,0.9-0.3h79.5c1,0,1.8,0.8,1.8,1.8
		c0,0.3-0.1,0.7-0.3,0.9l-21.4,34.8c17.8,6.6,34.8,21.9,47.9,43.5c12.5,20.5,19.9,44.5,19.9,64.2C362.4,288.5,318,295,274.7,295z
		 M238.2,98.6l20.9,34c0.5,0.9,0.3,2-0.6,2.5c-0.1,0.1-0.3,0.1-0.4,0.2c-17.8,5.9-34.9,21-48.1,42.7c-12.1,19.9-19.4,43.2-19.4,62.3
		c0,45,40.4,51.2,84,51.2s84-6.2,84-51.2c0-19.1-7.2-42.4-19.4-62.3c-13.2-21.7-30.3-36.8-48.1-42.7c-1-0.3-1.5-1.3-1.2-2.3
		c0-0.1,0.1-0.3,0.2-0.4l20.9-33.9L238.2,98.6z"></path><path class="st1" d="M252.4,128.2h44.5c1.1,0,1.9,0.9,1.9,1.9v3.1c0,1.1-0.9,1.9-1.9,1.9h-44.5c-1.1,0-1.9-0.9-1.9-1.9v-3.1
		C250.5,129,251.4,128.2,252.4,128.2z"></path><path class="st1" d="M295.4,137H254c-2.9,0.1-5.4-2.1-5.5-5.1s2.1-5.4,5.1-5.5c0.2,0,0.3,0,0.5,0h41.4c2.9,0.1,5.2,2.6,5.1,5.5
		C300.3,134.7,298.1,136.9,295.4,137L295.4,137z M254,130c-0.9,0-1.7,0.7-1.7,1.7c0,0.9,0.7,1.7,1.7,1.7c0,0,0,0,0,0h41.4
		c0.9,0,1.7-0.7,1.7-1.7c0-0.9-0.7-1.7-1.7-1.7c0,0,0,0,0,0H254z"></path><path class="st1" d="M282,131.1l-9.7,28.5c-0.3,0.8-1.2,1.3-2.1,1l-3.5-1.2c-0.8-0.3-1.3-1.2-1-2.1l9.7-28.5c0.3-0.8,1.2-1.3,2.1-1
		l3.5,1.2C281.9,129.3,282.3,130.2,282,131.1z"></path><path class="st1" d="M269.9,162.1c-0.5,0-1-0.1-1.5-0.3l-1-0.4c-2.5-0.9-3.8-3.5-3-6l8.9-26c0.8-2.5,3.5-3.8,6-3c0,0,0,0,0,0l1,0.3
		c2.5,0.9,3.8,3.5,3,6l-8.9,26c-0.4,1.2-1.3,2.2-2.4,2.7C271.3,161.9,270.6,162,269.9,162.1z M277.8,129.9c-0.2,0-0.3,0-0.5,0.1
		c-0.3,0.1-0.5,0.4-0.6,0.6l-8.9,26l0,0c-0.1,0.3-0.1,0.6,0,0.9c0.1,0.3,0.4,0.5,0.6,0.6l1,0.4c0.3,0.1,0.6,0.1,0.9-0.1
		c0.3-0.1,0.5-0.4,0.6-0.6l8.9-26c0.2-0.6-0.1-1.2-0.7-1.4l-1-0.4C278,129.9,277.9,129.9,277.8,129.9L277.8,129.9z M266.1,156
		L266.1,156z"></path><path class="st1" d="M286.4,129.6l9.7,28.5c0.3,0.8-0.2,1.8-1,2.1l-3.5,1.2c-0.8,0.3-1.8-0.2-2.1-1l-9.7-28.5
		c-0.3-0.8,0.2-1.8,1-2.1l3.5-1.2C285.2,128.3,286.2,128.8,286.4,129.6z"></path><path class="st1" d="M292,162.9c-2,0-3.8-1.3-4.5-3.2l-8.9-26c-0.8-2.5,0.5-5.2,3-6l1-0.4c2.5-0.8,5.2,0.5,6,3c0,0,0,0,0,0l8.9,26
		c0.8,2.5-0.5,5.2-3,6l-1,0.4C293,162.9,292.5,162.9,292,162.9z M284.1,130.7c-0.1,0-0.2,0-0.4,0.1l-1,0.4c-0.6,0.2-0.9,0.8-0.7,1.4
		l8.9,26c0.2,0.6,0.8,0.9,1.4,0.7c0,0,0,0,0,0l1-0.4c0.6-0.2,0.9-0.8,0.7-1.4l0,0l0,0l-8.9-26C285.1,131,284.6,130.7,284.1,130.7
		L284.1,130.7z"></path><path class="st2" d="M269.2,250.1v-6c-2.2-0.6-4.3-1-6.4-1.8c-4-1.3-7.4-3.8-9.8-7.3c-1.9-3-2.9-6.6-2.8-10.2H262
		c0.5,4.4,2.7,7.5,7.2,8.7v-15.9c-2.4-0.7-4.7-1.3-7-2.1c-2.6-0.7-4.9-2.1-6.8-3.9c-2-2-3.3-4.6-3.8-7.4c-0.7-3.4-0.4-6.9,0.7-10.2
		c1.7-4.8,5.5-8.5,10.3-10.2c1.9-0.6,3.9-1.1,5.9-1.5c0.2-0.1,0.4-0.1,0.7-0.1v-8h11v0.8c0,2.3,0,4.6,0,6.8c0,0.6,0.2,0.7,0.7,0.9
		c3.7,0.7,7.3,2.4,10.2,4.8c3.1,2.6,5.2,6.2,5.8,10.2c0.2,1.1,0.3,2.2,0.4,3.3h-12c-0.1-3.3-2.1-6.3-5.2-7.6v14.9
		c0.4,0.1,0.8,0.2,1.3,0.3c3.2,0.6,6.4,1.6,9.4,3c4.6,2,7.7,6.3,8.1,11.3c0.7,4.6-0.4,9.2-3.1,12.9c-2.2,3.1-5.3,5.4-8.9,6.5
		c-2.2,0.8-4.5,1.3-6.9,1.9v5.8H269.2z M280.2,219.9v13.8c1.8-0.3,3.5-1,4.9-2.1c2.5-2.1,3.5-7.3-0.3-9.6
		C283.3,221.2,281.8,220.5,280.2,219.9L280.2,219.9z M269.1,205.8v-13.4c-1.4,0.6-2.8,1.3-4.2,2.1c-3,2-3.5,7.7,0.4,9.6
		C266.5,204.8,267.8,205.2,269.1,205.8L269.1,205.8z"></path><path class="st1" d="M280.2,252h-11c-1,0-1.8-0.8-1.8-1.8v-4.6l-0.7-0.2c-1.5-0.4-3-0.8-4.5-1.3c-4.4-1.4-8.1-4.2-10.7-8
		c-2.1-3.3-3.2-7.2-3.1-11.2c0-0.5,0.2-0.9,0.5-1.3c0.3-0.3,0.8-0.5,1.3-0.5H262c0.9,0,1.7,0.7,1.8,1.6c0.4,3,1.5,5,3.6,6.2v-12
		l-0.9-0.2c-1.6-0.5-3.3-0.9-4.9-1.4c-2.9-0.8-5.5-2.3-7.6-4.3c-2.3-2.3-3.8-5.2-4.3-8.4c-0.8-3.7-0.5-7.6,0.8-11.2
		c1.9-5.3,6.1-9.4,11.3-11.3c1.4-0.5,2.9-0.9,4.3-1.2l1.1-0.2v-6.5c0-1,0.8-1.8,1.8-1.8h11c1,0,1.8,0.8,1.8,1.8v2.6
		c0,1.4,0,2.8,0,4.2c3.8,0.8,7.3,2.5,10.3,5c3.4,2.8,5.7,6.9,6.5,11.3c0.1,0.8,0.2,1.6,0.3,2.4l0.1,1c0.1,1-0.6,1.9-1.6,2
		c-0.1,0-0.1,0-0.2,0h-11.9c-1,0-1.8-0.7-1.8-1.7c-0.1-1.5-0.6-2.9-1.6-4.1v9.9c3.3,0.7,6.5,1.7,9.6,3.1c5.1,2.2,8.7,7.1,9.1,12.7
		c1.4,9.4-4.2,18.4-13.1,21.4c-1.6,0.6-3.2,1-4.8,1.4l-0.9,0.2v4.4C281.9,251.2,281.1,252,280.2,252z M271,248.3h7.4v-4
		c0-0.8,0.5-1.5,1.3-1.8c0.8-0.2,1.5-0.4,2.2-0.6c1.6-0.4,3.1-0.8,4.5-1.3c3.2-1.1,6-3.2,8-5.9c2.4-3.4,3.4-7.6,2.8-11.7
		c-0.3-4.4-3.1-8.2-7.1-9.9c-2.9-1.3-5.9-2.3-9-2.9l-1-0.2l-0.4-0.1c-0.8-0.2-1.4-0.9-1.4-1.8v-14.9c0-0.6,0.3-1.2,0.8-1.5
		c0.5-0.3,1.2-0.4,1.7-0.1c3.1,1.3,5.4,4.1,6,7.4h8.3c0-0.4-0.1-0.8-0.2-1.2c-0.5-3.6-2.4-6.8-5.2-9.1c-2.7-2.2-6-3.7-9.4-4.4
		c-1.3-0.2-2.2-1.3-2.1-2.7c0-1.6,0-3.3,0-4.9v-0.8H271v6.1c0,0.9-0.6,1.6-1.5,1.8h-0.3l-0.4,0.1c-0.6,0.2-1.3,0.3-1.9,0.4
		c-1.3,0.2-2.6,0.6-3.8,1c-4.3,1.5-7.7,4.9-9.2,9.2c-1.1,3-1.3,6.2-0.7,9.2c0.4,2.4,1.5,4.7,3.3,6.4c1.7,1.6,3.8,2.8,6.1,3.4
		c1.6,0.5,3.2,1,4.8,1.4l2.2,0.6c0.8,0.2,1.3,0.9,1.3,1.7v15.9c0,1-0.8,1.8-1.8,1.8c-0.2,0-0.3,0-0.4-0.1c-4.2-1-7.5-4.4-8.2-8.6
		h-8.3c0.2,2.6,1,5.2,2.4,7.4c2.1,3.2,5.2,5.5,8.8,6.6c1.3,0.5,2.7,0.8,4.2,1.2c0.7,0.2,1.4,0.3,2.1,0.5c0.8,0.2,1.3,0.9,1.3,1.8
		L271,248.3z M280.2,235.6c-1,0-1.8-0.8-1.8-1.8v-13.8c0-1,0.8-1.8,1.8-1.8c0.3,0,0.5,0.1,0.8,0.2l1.5,0.6c1.1,0.4,2.2,1,3.3,1.6
		c2,1.2,3.2,3.3,3.3,5.6c0.2,2.6-0.9,5.2-2.9,6.9c-1.6,1.3-3.6,2.2-5.7,2.5L280.2,235.6z M282,222.7v8.7c0.7-0.3,1.3-0.7,1.9-1.1
		c1.1-1,1.6-2.4,1.5-3.9c0-1.1-0.7-2.2-1.6-2.7C283.2,223.2,282.6,222.9,282,222.7L282,222.7z M269.1,207.6c-0.2,0-0.5,0-0.7-0.1
		l-1.2-0.5c-0.9-0.4-1.8-0.7-2.7-1.2c-2.2-1.1-3.7-3.4-3.8-5.9c-0.2-2.7,1-5.3,3.3-6.9c1-0.6,2-1.1,3-1.6c0.5-0.2,0.9-0.4,1.4-0.6
		c0.9-0.4,2-0.1,2.4,0.8c0.1,0.2,0.2,0.5,0.2,0.8v13.4c0,0.6-0.3,1.2-0.8,1.5C269.9,207.5,269.5,207.6,269.1,207.6L269.1,207.6z
		 M267.3,195.3c-0.5,0.2-0.9,0.5-1.4,0.8c-1.1,0.9-1.7,2.2-1.6,3.6c0,1.2,0.7,2.3,1.8,2.9c0.4,0.2,0.8,0.4,1.2,0.5V195.3z"></path></g><g id="hand"><path class="st3" d="M128.4,291.7c0,0,33-40.7,53.3-48.2c7-2.6,97.9,14,103.6,23s2,19.5-17.1,19.1c-10.8-0.2-21.6-1.3-32.2-3.4
		c0,0,38,12,48.9,11s71.4-16.8,75.1-12.1s9.8,18.1-8.3,24.5s-54.5,22.6-65.3,23.2s-103.1,19.5-103.1,19.5L128.4,291.7z"></path><path class="st1" d="M183.1,350c-0.5,0-1-0.2-1.3-0.5L127.1,293c-0.6-0.7-0.7-1.7-0.1-2.4c1.3-1.7,33.5-41.1,54-48.8
		c4.8-1.8,35.2,3.4,53.3,7.1s48.7,10.7,52.5,16.7c3.1,4.9,3.6,10.1,1.3,14.2c-2.1,3.7-7.2,8-20,7.7c-3-0.1-5.9-0.2-8.6-0.4
		c10,2.6,20.4,4.8,25.2,4.4c3.5-0.3,12.8-2.3,23.5-4.6c37-8,50.5-10.2,53.2-6.8c2.9,3.6,5.6,10,3.9,15.9c-1.5,5.1-5.9,9-13,11.5
		c-5.7,2-13.3,5-21.4,8.2c-18.1,7.2-36.8,14.6-44.4,15c-10.6,0.5-101.9,19.2-102.9,19.4C183.3,350,183.2,350,183.1,350z
		 M130.8,291.6l52.9,54.6c10.4-2.1,92-18.8,102.4-19.3c7.1-0.4,26.3-8,43.3-14.8c8.1-3.2,15.7-6.2,21.5-8.3c6-2.1,9.6-5.2,10.8-9.1
		c1.3-4.5-0.9-9.5-3.2-12.5c-3.7-1.9-33.6,4.5-49.7,8c-10.8,2.3-20.1,4.4-23.9,4.7c-11.1,1-48-10.6-49.6-11.1
		c-1-0.3-1.5-1.3-1.3-2.2s1.3-1.5,2.2-1.3c10.5,2.1,21.2,3.2,31.9,3.4c8.5,0.2,14.5-1.9,16.7-5.9c1.6-2.9,1.2-6.7-1.2-10.5
		c-4.8-7.6-94.2-24.9-101.4-22.3C164.6,251.7,136.5,284.8,130.8,291.6z"></path><polygon class="st0" points="118.7,287.8 136.1,272.7 197.3,348.2 178.9,362.5 	"></polygon><path class="st1" d="M178.9,364.3c-0.5,0-1.1-0.2-1.4-0.7l-60.2-74.7c-0.6-0.8-0.5-1.9,0.2-2.5l17.3-15.1c0.4-0.3,0.9-0.5,1.3-0.4
		c0.5,0,0.9,0.3,1.2,0.7l61.2,75.5c0.6,0.8,0.5,1.9-0.3,2.5c0,0,0,0,0,0L180,363.9C179.7,364.1,179.3,364.3,178.9,364.3z M121.2,288
		l57.9,72l15.6-12l-58.9-72.6L121.2,288z"></path><polygon class="st2" points="188.8,361 123.9,276.9 71.2,318.6 138.2,403.2 	"></polygon><path class="st1" d="M138.2,405H138c-0.5,0-0.9-0.3-1.2-0.7l-67-84.6c-0.3-0.4-0.4-0.9-0.4-1.3c0-0.5,0.3-0.9,0.7-1.2l52.8-41.7
		c0.8-0.6,1.9-0.5,2.6,0.3l64.9,84c0.6,0.8,0.5,1.9-0.3,2.5l-50.6,42.2C139.1,404.9,138.6,405,138.2,405z M73.7,318.9l64.8,81.7
		l47.9-39.9l-62.7-81.2L73.7,318.9z"></path><circle class="st1" cx="154.9" cy="356.6" r="8.4"></circle><path class="st1" d="M154.9,366.9c-5.7,0-10.2-4.6-10.2-10.2c0-5.7,4.6-10.2,10.2-10.2s10.2,4.6,10.2,10.2l0,0
		C165.1,362.3,160.5,366.9,154.9,366.9z M154.9,350c-3.7,0-6.6,3-6.6,6.6c0,3.7,3,6.6,6.6,6.6c3.6,0,6.6-3,6.6-6.6
		C161.5,353,158.5,350,154.9,350L154.9,350z"></path></g><g id="arrow"><polygon class="st4" points="154.9,117 130.6,148.3 142.6,148.3 142.6,226.8 167.1,226.8 167.1,148.3 179.2,148.3 	"></polygon><path class="st1" d="M167.1,228.7h-24.5c-1,0-1.8-0.8-1.8-1.8c0,0,0,0,0,0v-76.8h-10.3c-1,0-1.8-0.8-1.8-1.8c0-0.4,0.1-0.8,0.4-1.1
		l24.3-31.3c0.7-0.8,1.9-0.9,2.7-0.2c0.1,0.1,0.1,0.1,0.2,0.2l24.3,31.3c0.6,0.8,0.5,1.9-0.3,2.5c-0.3,0.2-0.7,0.4-1.1,0.4H169v76.8
		C169,227.8,168.2,228.7,167.1,228.7C167.2,228.7,167.2,228.7,167.1,228.7z M144.5,225h20.9v-76.7c0-1,0.8-1.8,1.8-1.8h8.4
		l-20.6-26.5l-20.6,26.5h8.4c1,0,1.8,0.8,1.8,1.8c0,0,0,0,0,0V225z"></path><polygon class="st4" points="343.8,333.5 323.7,359.3 333.7,359.3 333.7,396.6 353.9,396.6 353.9,359.3 363.9,359.3 	"></polygon><path class="st1" d="M353.9,398.4h-20.2c-1,0-1.8-0.8-1.8-1.8v-35.5h-8.1c-0.7,0-1.3-0.4-1.6-1c-0.3-0.6-0.2-1.4,0.2-1.9l20.1-25.8
		c0.7-0.8,1.8-0.9,2.6-0.2c0.1,0.1,0.2,0.1,0.2,0.2l20.1,25.8c0.6,0.8,0.5,1.9-0.3,2.5c-0.3,0.3-0.7,0.4-1.1,0.4h-8.1v35.5
		C355.7,397.6,354.9,398.4,353.9,398.4z M335.5,394.8h16.6v-35.5c0-1,0.8-1.8,1.8-1.8h6.3l-16.4-21l-16.4,21h6.2
		c1,0,1.8,0.8,1.8,1.8l0,0V394.8z"></path><polygon class="st4" points="265.8,343 251.8,361 258.8,361 258.8,387.1 272.9,387.1 272.9,361 279.9,361 	"></polygon><path class="st1" d="M272.9,388.9h-14.1c-1,0-1.8-0.8-1.8-1.8v-24.2h-5.1c-1,0-1.8-0.8-1.8-1.8c0-0.4,0.1-0.8,0.4-1.1l14-18
		c0.7-0.8,1.9-0.9,2.7-0.2c0.1,0.1,0.1,0.1,0.2,0.2l14,18c0.6,0.8,0.5,1.9-0.3,2.5c-0.3,0.2-0.7,0.4-1.1,0.4h-5.1v24.2
		C274.7,388.1,273.9,388.9,272.9,388.9z M260.6,385.3h10.5V361c0-1,0.8-1.8,1.8-1.8h3.3L265.8,346l-10.3,13.3h3.2
		c1,0,1.8,0.8,1.8,1.7V385.3z"></path><polygon class="st4" points="103.4,194.6 88.1,214.3 95.7,214.3 95.7,263.8 111.1,263.8 111.1,214.3 118.7,214.3 	"></polygon><path class="st1" d="M111.1,265.6H95.7c-1,0-1.8-0.8-1.8-1.8v-47.6h-5.8c-1,0-1.8-0.8-1.8-1.8c0-0.4,0.1-0.8,0.4-1.1l15.3-19.7
		c0.7-0.8,1.9-0.9,2.7-0.2c0.1,0.1,0.1,0.1,0.2,0.2l15.3,19.7c0.6,0.8,0.5,1.9-0.3,2.5c-0.3,0.3-0.7,0.4-1.1,0.4h-5.8v47.6
		C113,264.8,112.1,265.6,111.1,265.6C111.1,265.6,111.1,265.6,111.1,265.6z M97.5,262h11.8v-47.7c0-1,0.8-1.8,1.8-1.8c0,0,0,0,0,0
		h3.9l-11.6-14.9l-11.6,14.9h3.9c1,0,1.8,0.8,1.8,1.8l0,0V262z"></path><polygon class="st4" points="404.5,121.1 380.2,152.4 392.2,152.4 392.2,332.5 416.8,332.5 416.8,152.4 428.8,152.4 	"></polygon><path class="st1" d="M416.8,334.4h-24.5c-1,0-1.8-0.8-1.8-1.8V154.2h-10.3c-1,0-1.8-0.8-1.8-1.8c0-0.4,0.1-0.8,0.4-1.1l24.3-31.3
		c0.7-0.8,1.9-0.9,2.7-0.2c0.1,0.1,0.1,0.1,0.2,0.2l24.3,31.3c0.4,0.5,0.5,1.3,0.2,1.9c-0.3,0.6-0.9,1-1.6,1h-10.3v178.3
		C418.6,333.5,417.8,334.3,416.8,334.4C416.8,334.4,416.8,334.4,416.8,334.4z M394.1,330.7h20.9V152.4c0-1,0.8-1.8,1.8-1.8h8.4
		l-20.6-26.5l-20.6,26.5h8.4c1,0,1.8,0.8,1.8,1.8V330.7z"></path></g></svg>