<?xml version="1.0"?>
<svg width="402" height="115" xmlns="http://www.w3.org/2000/svg" xmlns:svg="http://www.w3.org/2000/svg" enable-background="new 0 0 600 600" version="1.1" xml:space="preserve">
 <title>logo</title>
 <style type="text/css">.st0{fill:#7435FF;}
	.st1{fill:#FC5E81;}
	.st2{fill:#FFAF00;}
	.st3{fill:#140047;}
	.st4{fill:#4FE1D6;}</style>
 <g class="layer">
  <title>Layer 1</title>
  <g id="svg_1">
   <g id="svg_2">
    <g id="svg_3">
     <path class="st0" d="m26.41,97.16l-5.3,-18.9l-8.83,2.2l1.71,5.29l-5.79,9.27l6.54,4.06l2.34,-3.74l2.12,6.56c1.08,3.36 4.52,5.37 7.99,4.67l46.81,-18.79l-47.59,9.38z" id="svg_4"/>
     <path class="st1" d="m9.64,42.27l16.4,-10.86l-4.84,-7.69l-4.52,3.25l-10.64,-2.62l-1.85,7.45l4.3,1.06l-5.61,4.03c-2.87,2.06 -3.72,5.94 -2,9.01l32.4,38.55l-23.65,-42.18z" id="svg_5"/>
     <path class="st2" d="m56.86,9.42l15.44,12.18l5.85,-6.96l-4.5,-3.28l-0.78,-10.89l-7.69,0.55l0.32,4.39l-5.58,-4.07c-2.85,-2.08 -6.83,-1.7 -9.22,0.9l-26.79,42.61l32.95,-35.43z" id="svg_6"/>
     <path class="st3" d="m116.29,56.42l-2.9,-7.11l-4.1,1.66l2.16,-6.55c1.1,-3.35 -0.49,-6.99 -3.7,-8.46l-48.95,-12.21l44.01,20.27l-6.86,18.39l8.45,3.39l1.74,-5.27l10.15,-4.11z" id="svg_7"/>
     <path class="st4" d="m83.98,98.24l-19.67,-0.81l-0.62,9.06l5.57,0.02l7.06,8.35l5.89,-4.94l-2.85,-3.37l6.92,0.02c3.53,0.01 6.52,-2.62 6.93,-6.12l-3.47,-50.16l-5.74,47.95z" id="svg_8"/>
    </g>
    <g id="svg_9">
     <rect class="st3" height="9.55" id="svg_10" width="9.59" x="47.59" y="46.97"/>
     <rect class="st3" height="9.55" id="svg_11" width="9.59" x="59.12" y="46.97"/>
     <rect class="st3" height="9.55" id="svg_12" width="9.59" x="47.59" y="58.35"/>
     <rect class="st3" height="9.55" id="svg_13" width="9.59" x="59.12" y="58.35"/>
    </g>
   </g>
   <g id="XMLID_4160_">
    <path class="st3" d="m166.53,44.2c1.23,-2.28 1.89,-4.87 1.89,-7.5c0,-2.58 -0.65,-5.14 -1.89,-7.43c-2.82,-5.1 -8.16,-8.26 -13.94,-8.26l-20.71,0l0,56.92l4.3,0l0,-14.91c0,-5.82 4.79,-10.55 10.66,-10.55l6.68,0c5.84,0 10.59,4.73 10.59,10.55l0,14.91l4.3,0l0,-14.91c0,-2.51 -0.65,-5 -1.9,-7.21c-1.37,-2.39 -3.31,-4.35 -5.64,-5.69c2.35,-1.45 4.31,-3.48 5.66,-5.92zm-30.35,-18.91l16.4,0c6.35,0 11.53,5.12 11.53,11.41c0,6.33 -5.17,11.49 -11.53,11.49l-5.74,0c-2.57,0 -5.1,0.65 -7.32,1.89c-1.23,0.7 -2.36,1.57 -3.34,2.57l0,-27.36z" id="XMLID_6847_"/>
    <path class="st3" d="m212.18,51.22c-0.28,-0.85 -0.6,-1.81 -1.05,-2.72c-3.17,-6.23 -9.46,-10.1 -16.4,-10.1c-6.95,0 -13.23,3.87 -16.4,10.1l-0.01,0.02c-1.23,2.54 -1.86,5.26 -1.86,8.08l0,3.13c0,2.76 0.62,5.46 1.87,8.02c3.19,6.28 9.48,10.18 16.4,10.18c6.92,0 13.2,-3.9 16.4,-10.19c0.53,-1.07 0.87,-2.11 1.17,-3.09l0.51,-1.66l-4.49,0l-0.29,0.89c-1.84,5.7 -7.31,9.68 -13.32,9.68c-7.51,0 -13.65,-5.9 -13.95,-13.26l32.22,0l0,-3.71c0,-1.64 -0.21,-3.21 -0.69,-5.03l-0.11,-0.34zm-17.45,-8.54c6.01,0 11.48,3.98 13.32,9.68c0.38,1.19 0.58,2.34 0.63,3.58l-27.9,0c0.34,-7.37 6.46,-13.26 13.95,-13.26z" id="XMLID_6839_"/>
    <path class="st3" d="m224.41,28.55c-1.23,2.2 -1.9,4.72 -1.9,7.28l0,2.56l-6.21,0l0,4.28l6.21,0l0,35.25l4.3,0l0,-35.25l6.21,0l0,-4.28l-6.21,0l0,-2.56c0,-5.82 4.75,-10.55 10.59,-10.55l4.67,0l0,-4.36l-4.67,0c-5.33,0.01 -10.31,2.93 -12.99,7.63z" id="XMLID_6836_"/>
    <rect class="st3" height="91.16" id="XMLID_6833_" width="4.3" x="245.45" y="3.85"/>
    <path class="st3" d="m258.88,51.57c-0.48,1.81 -0.69,3.38 -0.69,5.03l0,3.71l32.22,0c-0.3,7.36 -6.44,13.26 -13.95,13.26c-6.01,0 -11.48,-3.98 -13.32,-9.68l-0.29,-0.89l-4.49,0l0.51,1.66c0.37,1.19 0.69,2.13 1.18,3.09c3.2,6.29 9.49,10.19 16.4,10.19c6.92,0 13.2,-3.9 16.4,-10.18c1.24,-2.57 1.87,-5.26 1.87,-8.02l0,-3.13c0,-2.82 -0.62,-5.53 -1.86,-8.08l-0.01,-0.02c-3.17,-6.23 -9.46,-10.1 -16.4,-10.1c-6.95,0 -13.23,3.87 -16.4,10.1c-0.46,0.92 -0.78,1.88 -1.06,2.73l-0.11,0.33zm31.53,4.37l-27.9,0c0.05,-1.24 0.26,-2.39 0.63,-3.58c1.84,-5.7 7.31,-9.68 13.32,-9.68c7.48,0 13.61,5.89 13.95,13.26z" id="XMLID_4653_"/>
    <path class="st3" d="m319.45,42.68c-6.01,0 -11.49,4.01 -13.32,9.76l-0.28,0.89l-4.5,0l0.51,-1.66c0.33,-1.06 0.66,-2.16 1.18,-3.09c3.15,-6.28 9.43,-10.19 16.4,-10.19c6.97,0 13.25,3.9 16.4,10.19c1.22,2.43 1.87,5.2 1.87,8.01l0,3.13c0,2.81 -0.64,5.58 -1.87,8.01c-3.15,6.28 -9.43,10.19 -16.4,10.19c-6.97,0 -13.25,-3.9 -16.4,-10.19c-0.53,-1.07 -0.87,-2.11 -1.18,-3.09l-0.51,-1.66l4.49,0l0.29,0.89c1.85,5.75 7.33,9.76 13.32,9.76c7.7,0 13.96,-6.24 13.96,-13.91l0,-3.13c0,-7.67 -6.26,-13.91 -13.96,-13.91z" id="XMLID_4369_"/>
    <path class="st3" d="m353.16,66.93l0,-24.25l-6.21,0l0,-4.28l6.21,0l0,-8.77l4.3,0l0,8.77l6.21,0l0,4.28l-6.21,0l0,24.33c0,2.24 -0.68,4.39 -1.97,6.23c-2.12,2.93 -5.51,4.68 -9.06,4.68l-6.16,0l0,-4.36l6.16,0c3.71,0 6.73,-2.97 6.73,-6.63z" id="XMLID_4357_"/>
    <path class="st3" d="m401.06,51.65l-0.14,-0.44c-0.28,-0.85 -0.6,-1.8 -1.05,-2.71c-3.17,-6.23 -9.46,-10.1 -16.4,-10.1c-6.95,0 -13.23,3.87 -16.41,10.12c-1.23,2.54 -1.86,5.26 -1.86,8.08l0,3.13c0,2.76 0.62,5.45 1.87,8.02c3.19,6.28 9.48,10.18 16.4,10.18c6.92,0 13.2,-3.9 16.4,-10.19c0.53,-1.07 0.87,-2.11 1.19,-3.14c0.45,-1.71 0.67,-3.3 0.67,-4.87l0,-3.13c0,-1.65 -0.21,-3.22 -0.67,-4.95zm-17.6,21.91c-7.7,0 -13.96,-6.21 -13.96,-13.84l0,-3.13c0,-7.67 6.26,-13.91 13.96,-13.91c6.01,0 11.48,3.98 13.32,9.68c0.44,1.39 0.64,2.74 0.64,4.23l0,3.13c0,1.42 -0.21,2.78 -0.64,4.15c-1.84,5.71 -7.32,9.69 -13.32,9.69z" id="XMLID_4346_"/>
    <g id="XMLID_7094_">
     <g id="svg_14">
      <path class="st3" d="m165.39,63.02c0,-6.5 -5.35,-11.83 -11.87,-11.83l-6.68,0c-6.6,0 -11.95,5.33 -11.95,11.83l0,13.63l-1.73,0l0,-54.36l19.42,0c5.5,0 10.3,3.05 12.82,7.6c1.1,2.04 1.73,4.39 1.73,6.81c0,2.51 -0.63,4.86 -1.73,6.89c-1.65,2.98 -4.33,5.33 -7.47,6.58c3.14,1.1 5.82,3.37 7.47,6.27c1.1,1.96 1.73,4.23 1.73,6.58l0,13.63l-1.73,0l0,-13.63zm-30.5,-6.58c1.25,-2.19 3.06,-3.99 5.27,-5.25c1.97,-1.1 4.25,-1.72 6.68,-1.72l5.74,0c7.08,0 12.82,-5.72 12.82,-12.77c0,-6.97 -5.74,-12.69 -12.82,-12.69l-17.69,0l0,32.43l-0.01,0z" id="XMLID_00000176747016745920333240000016283749255218953376_"/>
      <path class="st3" d="m179.47,49.07c2.83,-5.56 8.57,-9.4 15.25,-9.4c6.68,0 12.43,3.84 15.26,9.4c0.47,0.94 0.78,1.96 1.1,2.9c0.39,1.49 0.63,2.98 0.63,4.62l0,2.43l-32.23,0l0,0.7c0,8.3 6.84,15.12 15.25,15.12c6.77,0 12.58,-4.46 14.54,-10.57l1.81,0c-0.31,1.02 -0.63,1.96 -1.1,2.9c-2.83,5.56 -8.57,9.48 -15.26,9.48c-6.68,0 -12.43,-3.92 -15.25,-9.48c-1.1,-2.27 -1.73,-4.78 -1.73,-7.44l0,-3.13c0,-2.75 0.62,-5.25 1.73,-7.53zm30.5,8.15l0,-0.63c0,-1.64 -0.23,-3.13 -0.7,-4.62c-1.97,-6.11 -7.78,-10.57 -14.54,-10.57c-8.41,0 -15.25,6.81 -15.25,15.2l0,0.63l30.49,0l0,-0.01z" id="XMLID_00000031899746229919079550000008555364205515035264_"/>
      <path class="st3" d="m223.81,76.65l0,-35.25l-6.21,0l0,-1.72l6.21,0l0,-3.84c0,-2.43 0.63,-4.7 1.73,-6.66c2.36,-4.15 6.84,-6.97 11.87,-6.97l3.38,0l0,1.8l-3.38,0c-6.52,0 -11.87,5.33 -11.87,11.83l0,3.84l6.21,0l0,1.72l-6.21,0l0,35.25l-1.73,0z" id="XMLID_00000042002892944387451180000017375811592572357531_"/>
     </g>
    </g>
    <g id="XMLID_7033_">
     <g id="svg_15">
      <path class="st2" d="m262.06,92.77l0,-12.25l2.23,0l0,12.25l-2.23,0z" id="XMLID_00000035513789903608009390000013225342654440545667_"/>
      <path class="st2" d="m281.14,92.77l-7.65,-8.61l0,8.61l-2.2,0l0,-12.25l2.26,0l7.56,8.93l0,-8.93l2.18,0l0,12.25l-2.15,0z" id="XMLID_00000000207009084341340460000016562811813362040452_"/>
      <path class="st2" d="m293.9,92.77l0,-10.21l-4.63,0l0,-2.03l11.48,0l0,2.03l-4.63,0l0,10.21l-2.23,0z" id="XMLID_00000075156615788782467370000010400620149865783478_"/>
      <path class="st2" d="m306.77,92.77l0,-12.25l10.05,0l0,2.02l-7.82,0l0,3.06l6.96,0l0,1.74l-6.96,0l0,3.36l8.01,0l0,2.07l-10.24,0z" id="XMLID_00000085954401066562524890000007267315875905087364_"/>
      <path class="st2" d="m333.23,92.77l-3.37,-4.27l-4.14,0l0,4.27l-2.23,0l0,-12.25l6.66,0c0.84,0 1.56,0.1 2.13,0.31c0.57,0.21 1.02,0.49 1.38,0.85c0.34,0.36 0.58,0.78 0.73,1.26c0.14,0.48 0.21,1.01 0.21,1.56c0,0.85 -0.23,1.6 -0.69,2.23c-0.46,0.63 -1.12,1.05 -1.98,1.24l4.01,4.8l-2.72,0zm-7.52,-10.21l0,4.1l4.29,0c0.32,0 0.62,-0.04 0.91,-0.12c0.28,-0.08 0.54,-0.2 0.76,-0.37c0.22,-0.17 0.4,-0.38 0.53,-0.64c0.13,-0.26 0.2,-0.58 0.2,-0.96c0,-0.36 -0.06,-0.67 -0.18,-0.93c-0.12,-0.26 -0.29,-0.46 -0.5,-0.62c-0.22,-0.16 -0.47,-0.28 -0.77,-0.35c-0.3,-0.07 -0.62,-0.11 -0.96,-0.11l-4.28,0z" id="XMLID_00000122721135740590143340000000952695105428744867_"/>
      <path class="st2" d="m341.86,92.77l0,-12.25l2.23,0l0,12.25l-2.23,0z" id="XMLID_00000065787632176885557540000013862899454054207369_"/>
      <path class="st2" d="m365.17,86.81c0,0.96 -0.18,1.82 -0.54,2.59c-0.36,0.77 -0.86,1.42 -1.51,1.96c-0.64,0.54 -1.42,0.96 -2.31,1.26c-0.89,0.3 -1.87,0.44 -2.93,0.44c-1.01,0 -1.97,-0.15 -2.84,-0.44c-0.87,-0.3 -1.64,-0.71 -2.28,-1.26c-0.64,-0.54 -1.15,-1.19 -1.53,-1.96c-0.37,-0.77 -0.56,-1.63 -0.56,-2.59c0,-0.96 0.17,-1.83 0.51,-2.62s0.83,-1.47 1.47,-2.05c0.63,-0.58 1.4,-1.02 2.27,-1.34c0.88,-0.32 1.87,-0.48 2.95,-0.48c1.06,0 2.04,0.16 2.93,0.48s1.66,0.77 2.31,1.34c0.64,0.57 1.15,1.26 1.51,2.05s0.55,1.66 0.55,2.62zm-2.33,-0.01c0,-0.67 -0.12,-1.28 -0.37,-1.82c-0.24,-0.54 -0.59,-1 -1.03,-1.38c-0.44,-0.38 -0.96,-0.67 -1.57,-0.88c-0.6,-0.2 -1.26,-0.31 -1.99,-0.31c-0.71,0 -1.37,0.1 -1.97,0.31c-0.6,0.21 -1.12,0.5 -1.57,0.88c-0.44,0.38 -0.78,0.84 -1.02,1.38s-0.37,1.15 -0.37,1.82c0,0.67 0.13,1.26 0.38,1.78c0.26,0.52 0.61,0.95 1.05,1.31c0.44,0.36 0.97,0.63 1.57,0.82c0.6,0.19 1.24,0.28 1.93,0.28c0.72,0 1.39,-0.09 1.99,-0.28c0.6,-0.19 1.12,-0.46 1.57,-0.82c0.44,-0.36 0.78,-0.8 1.03,-1.31c0.25,-0.52 0.37,-1.11 0.37,-1.78z" id="XMLID_00000160896974705872374440000002615183135231224203_"/>
      <path class="st2" d="m381.42,92.77l-3.37,-4.27l-4.14,0l0,4.27l-2.23,0l0,-12.25l6.66,0c0.84,0 1.56,0.1 2.13,0.31c0.57,0.21 1.02,0.49 1.38,0.85c0.34,0.36 0.58,0.78 0.73,1.26c0.14,0.48 0.21,1.01 0.21,1.56c0,0.85 -0.23,1.6 -0.69,2.23c-0.46,0.63 -1.12,1.05 -1.98,1.24l4.01,4.8l-2.72,0zm-7.51,-10.21l0,4.1l4.29,0c0.32,0 0.62,-0.04 0.91,-0.12c0.28,-0.08 0.54,-0.2 0.76,-0.37c0.22,-0.17 0.4,-0.38 0.53,-0.64c0.13,-0.26 0.2,-0.58 0.2,-0.96c0,-0.36 -0.06,-0.67 -0.18,-0.93c-0.12,-0.26 -0.29,-0.46 -0.5,-0.62c-0.22,-0.16 -0.47,-0.28 -0.77,-0.35c-0.3,-0.07 -0.62,-0.11 -0.96,-0.11l-4.28,0z" id="XMLID_00000042012833258819096680000000870071770130619779_"/>
      <path class="st2" d="m398.04,83.55c-0.51,-0.43 -1.09,-0.75 -1.74,-0.96c-0.64,-0.21 -1.29,-0.31 -1.96,-0.31c-0.25,0 -0.53,0.02 -0.85,0.06c-0.31,0.04 -0.61,0.12 -0.89,0.23c-0.28,0.11 -0.52,0.27 -0.71,0.48c-0.19,0.21 -0.29,0.47 -0.29,0.8c0,0.32 0.08,0.58 0.25,0.77c0.17,0.19 0.39,0.35 0.67,0.47c0.28,0.12 0.6,0.22 0.96,0.29c0.36,0.07 0.73,0.14 1.1,0.21c0.65,0.11 1.28,0.25 1.91,0.4c0.62,0.15 1.16,0.37 1.64,0.64c0.47,0.27 0.85,0.63 1.14,1.06c0.29,0.43 0.43,0.99 0.43,1.67c0,0.74 -0.16,1.35 -0.49,1.82c-0.32,0.47 -0.74,0.84 -1.26,1.12c-0.51,0.27 -1.08,0.46 -1.7,0.57c-0.61,0.11 -1.21,0.16 -1.8,0.16c-0.51,0 -1.03,-0.04 -1.56,-0.12c-0.52,-0.08 -1.03,-0.21 -1.53,-0.38c-0.49,-0.18 -0.94,-0.41 -1.38,-0.71c-0.42,-0.3 -0.79,-0.67 -1.09,-1.11l1.62,-1.49c0.23,0.34 0.49,0.63 0.79,0.86c0.3,0.23 0.63,0.42 0.97,0.56c0.35,0.14 0.71,0.25 1.1,0.32c0.39,0.07 0.77,0.1 1.16,0.1c0.28,0 0.6,-0.02 0.95,-0.05c0.35,-0.03 0.67,-0.11 0.97,-0.22c0.3,-0.11 0.54,-0.28 0.74,-0.5c0.2,-0.22 0.3,-0.52 0.3,-0.88c0,-0.36 -0.12,-0.65 -0.35,-0.87c-0.23,-0.22 -0.54,-0.39 -0.92,-0.53c-0.38,-0.14 -0.81,-0.25 -1.3,-0.34c-0.48,-0.09 -0.98,-0.18 -1.5,-0.28c-0.51,-0.1 -1.01,-0.22 -1.5,-0.37c-0.49,-0.15 -0.92,-0.35 -1.3,-0.6c-0.38,-0.25 -0.69,-0.57 -0.92,-0.96c-0.23,-0.39 -0.35,-0.87 -0.35,-1.45c0,-0.68 0.15,-1.26 0.47,-1.73c0.31,-0.47 0.71,-0.85 1.19,-1.14c0.48,-0.29 1.01,-0.5 1.61,-0.63c0.59,-0.13 1.16,-0.2 1.73,-0.2c0.85,0 1.72,0.1 2.58,0.29c0.86,0.19 1.65,0.56 2.34,1.11l-1.25,1.84z" id="XMLID_00000107576042618833888700000011647805372244930981_"/>
     </g>
    </g>
    <g id="XMLID_4263_">
     <g id="svg_16">
      <path class="st2" d="m140.04,106.93l0,-5.19l-2.76,5.19l-0.63,0l-2.8,-5.19l0,5.19l-1.26,0l0,-7.35l1.58,0l2.82,5.38l2.82,-5.38l1.53,0l0,7.35l-1.28,0z" id="XMLID_00000178922254097565429240000014945015369149717133_"/>
      <path class="st2" d="m153.28,106.93l-0.96,-1.93l-3.97,0l-0.96,1.93l-1.52,0l3.82,-7.35l1.28,0l3.88,7.35l-1.58,0zm-2.94,-5.89l-1.5,2.91l2.96,0l-1.47,-2.91z" id="XMLID_00000126291710480293312910000007849802129874907299_"/>
      <path class="st2" d="m163.2,102.39l3.69,4.54l-1.77,0l-2.91,-3.78l-1.46,1.12l0,2.66l-1.33,0l0,-7.35l1.33,0l0,3.19l4.15,-3.19l1.9,0l-3.6,2.81z" id="XMLID_00000103245491774218231810000007225313858051658650_"/>
      <path class="st2" d="m171.45,106.93l0,-7.35l6.02,0l0,1.21l-4.69,0l0,1.83l4.18,0l0,1.05l-4.18,0l0,2.02l4.81,0l0,1.24l-6.14,0z" id="XMLID_00000117657653171986380630000015890098005618766765_"/>
      <path class="st2" d="m192.35,106.93l0,-2.96l-3.63,-4.39l1.73,0l2.6,3.22l2.58,-3.22l1.65,0l-3.58,4.4l0,2.95l-1.33,0z" id="XMLID_00000169557434825137219220000011080724738594055065_"/>
      <path class="st2" d="m209.19,103.35c0,0.57 -0.11,1.09 -0.32,1.55c-0.22,0.46 -0.52,0.85 -0.9,1.18c-0.39,0.32 -0.85,0.58 -1.39,0.75c-0.53,0.18 -1.12,0.27 -1.76,0.27c-0.61,0 -1.17,-0.09 -1.71,-0.27c-0.52,-0.18 -0.98,-0.43 -1.37,-0.75c-0.39,-0.32 -0.69,-0.72 -0.91,-1.18c-0.22,-0.46 -0.33,-0.98 -0.33,-1.55c0,-0.57 0.1,-1.1 0.31,-1.57c0.2,-0.48 0.5,-0.88 0.88,-1.23c0.38,-0.35 0.83,-0.61 1.37,-0.8c0.53,-0.19 1.11,-0.29 1.77,-0.29c0.64,0 1.22,0.1 1.76,0.29c0.53,0.19 0.99,0.46 1.39,0.8c0.39,0.35 0.69,0.75 0.9,1.23c0.21,0.47 0.31,1 0.31,1.57zm-1.4,0c0,-0.4 -0.07,-0.77 -0.22,-1.09c-0.15,-0.32 -0.35,-0.6 -0.61,-0.83c-0.26,-0.23 -0.58,-0.4 -0.94,-0.53c-0.36,-0.12 -0.76,-0.18 -1.19,-0.18c-0.42,0 -0.82,0.06 -1.18,0.18c-0.36,0.12 -0.67,0.3 -0.94,0.53c-0.26,0.23 -0.47,0.5 -0.61,0.83c-0.15,0.32 -0.22,0.69 -0.22,1.09c0,0.4 0.08,0.76 0.23,1.07c0.15,0.31 0.36,0.57 0.63,0.79c0.27,0.21 0.58,0.38 0.94,0.49c0.36,0.11 0.74,0.17 1.15,0.17c0.43,0 0.83,-0.06 1.19,-0.17c0.36,-0.11 0.67,-0.28 0.94,-0.49c0.26,-0.21 0.47,-0.48 0.61,-0.79c0.15,-0.31 0.22,-0.67 0.22,-1.07z" id="XMLID_00000081626829681059614110000001607015538569150387_"/>
      <path class="st2" d="m219.93,99.58l1.33,0l0,4.52c0,0.57 -0.1,1.04 -0.31,1.43c-0.21,0.38 -0.47,0.69 -0.81,0.93c-0.33,0.24 -0.72,0.4 -1.15,0.5c-0.43,0.1 -0.87,0.15 -1.33,0.15c-0.46,0 -0.9,-0.05 -1.33,-0.15c-0.43,-0.1 -0.81,-0.27 -1.15,-0.5c-0.33,-0.24 -0.6,-0.54 -0.81,-0.93c-0.2,-0.38 -0.31,-0.86 -0.31,-1.43l0,-4.52l1.33,0l0,4.46c0,0.62 0.2,1.08 0.61,1.38c0.41,0.3 0.96,0.45 1.67,0.45c0.7,0 1.25,-0.15 1.67,-0.45c0.4,-0.3 0.6,-0.76 0.6,-1.38l0,-4.46l0.01,0z" id="XMLID_00000182504636015339446630000014826639740636850357_"/>
      <path class="st2" d="m232.22,106.93l-2.03,-2.56l-2.48,0l0,2.56l-1.33,0l0,-7.35l4,0c0.51,0 0.93,0.06 1.27,0.18c0.34,0.12 0.61,0.29 0.82,0.51c0.21,0.21 0.35,0.47 0.44,0.76c0.09,0.29 0.13,0.6 0.13,0.94c0,0.51 -0.14,0.96 -0.42,1.34c-0.28,0.38 -0.67,0.63 -1.18,0.74l2.41,2.88l-1.64,0zm-4.51,-6.13l0,2.46l2.57,0c0.19,0 0.37,-0.02 0.54,-0.07c0.17,-0.05 0.32,-0.12 0.46,-0.22c0.13,-0.1 0.24,-0.23 0.32,-0.38c0.08,-0.16 0.12,-0.35 0.12,-0.57c0,-0.22 -0.04,-0.41 -0.11,-0.56c-0.07,-0.15 -0.17,-0.28 -0.3,-0.37c-0.13,-0.1 -0.28,-0.17 -0.46,-0.21c-0.18,-0.04 -0.37,-0.07 -0.57,-0.07l-2.57,0l0,-0.01z" id="XMLID_00000072972179006683871190000006017223963548157868_"/>
      <path class="st2" d="m245.28,106.93l0,-7.35l3.54,0c0.7,0 1.31,0.09 1.84,0.28c0.52,0.18 0.94,0.44 1.28,0.77c0.33,0.33 0.58,0.72 0.74,1.16c0.16,0.45 0.24,0.94 0.24,1.47c0,0.53 -0.1,1.02 -0.29,1.47c-0.19,0.45 -0.47,0.83 -0.82,1.16c-0.36,0.32 -0.79,0.58 -1.29,0.76c-0.51,0.18 -1.07,0.28 -1.69,0.28l-3.55,0zm3.46,-1.24c0.41,0 0.79,-0.05 1.13,-0.15c0.34,-0.1 0.64,-0.25 0.89,-0.45c0.25,-0.2 0.45,-0.45 0.59,-0.75c0.14,-0.3 0.21,-0.65 0.21,-1.06c0,-0.83 -0.24,-1.45 -0.72,-1.86c-0.48,-0.42 -1.18,-0.63 -2.11,-0.63l-2.12,0l0,4.89l2.12,0l0,0.01z" id="XMLID_00000068642240969037500330000004694137858904013216_"/>
      <path class="st2" d="m263.7,106.93l-2.03,-2.56l-2.48,0l0,2.56l-1.33,0l0,-7.35l4,0c0.51,0 0.93,0.06 1.27,0.18c0.34,0.12 0.61,0.29 0.82,0.51c0.21,0.21 0.35,0.47 0.44,0.76c0.09,0.29 0.13,0.6 0.13,0.94c0,0.51 -0.14,0.96 -0.42,1.34c-0.28,0.38 -0.67,0.63 -1.18,0.74l2.41,2.88l-1.64,0zm-4.51,-6.13l0,2.46l2.57,0c0.19,0 0.37,-0.02 0.54,-0.07c0.17,-0.05 0.32,-0.12 0.46,-0.22c0.13,-0.1 0.24,-0.23 0.32,-0.38c0.08,-0.16 0.12,-0.35 0.12,-0.57c0,-0.22 -0.04,-0.41 -0.11,-0.56s-0.17,-0.28 -0.3,-0.37c-0.13,-0.1 -0.28,-0.17 -0.46,-0.21c-0.18,-0.04 -0.37,-0.07 -0.57,-0.07l-2.57,0l0,-0.01z" id="XMLID_00000164481648068722509260000014756970072703570838_"/>
      <path class="st2" d="m269.87,106.93l0,-7.35l6.03,0l0,1.21l-4.69,0l0,1.83l4.18,0l0,1.05l-4.18,0l0,2.02l4.81,0l0,1.24l-6.15,0z" id="XMLID_00000078043578979059105090000002271900059935848338_"/>
      <path class="st2" d="m287.71,106.93l-0.96,-1.93l-3.97,0l-0.96,1.93l-1.52,0l3.82,-7.35l1.28,0l3.88,7.35l-1.58,0zm-2.95,-5.89l-1.5,2.91l2.96,0l-1.47,-2.91z" id="XMLID_00000129179420552715852110000003794334925117129917_"/>
      <path class="st2" d="m301.26,106.93l0,-5.19l-2.76,5.19l-0.63,0l-2.8,-5.19l0,5.19l-1.26,0l0,-7.35l1.58,0l2.82,5.38l2.82,-5.38l1.53,0l0,7.35l-1.28,0z" id="XMLID_00000029749741104807641660000002356596087039034527_"/>
      <path class="st2" d="m312.75,101.39c-0.31,-0.26 -0.65,-0.45 -1.04,-0.57c-0.38,-0.12 -0.77,-0.18 -1.17,-0.18c-0.15,0 -0.32,0.01 -0.51,0.04c-0.19,0.02 -0.37,0.07 -0.53,0.14c-0.17,0.07 -0.31,0.16 -0.42,0.29c-0.12,0.12 -0.17,0.28 -0.17,0.48c0,0.19 0.05,0.35 0.15,0.46c0.1,0.12 0.23,0.21 0.4,0.28c0.17,0.07 0.36,0.13 0.57,0.17c0.22,0.04 0.44,0.09 0.66,0.13c0.39,0.07 0.77,0.15 1.14,0.24c0.37,0.09 0.7,0.22 0.98,0.38c0.28,0.16 0.51,0.38 0.68,0.64c0.17,0.26 0.26,0.59 0.26,1c0,0.44 -0.1,0.81 -0.29,1.09c-0.19,0.28 -0.45,0.51 -0.75,0.67c-0.31,0.16 -0.65,0.28 -1.01,0.34c-0.37,0.07 -0.73,0.1 -1.08,0.1c-0.31,0 -0.62,-0.02 -0.93,-0.07c-0.32,-0.05 -0.62,-0.12 -0.91,-0.23c-0.29,-0.1 -0.57,-0.25 -0.82,-0.42c-0.25,-0.18 -0.47,-0.4 -0.66,-0.67l0.96,-0.89c0.14,0.21 0.29,0.38 0.48,0.52c0.18,0.14 0.38,0.25 0.58,0.34c0.21,0.09 0.43,0.15 0.66,0.19c0.23,0.04 0.46,0.06 0.7,0.06c0.17,0 0.36,-0.01 0.57,-0.03c0.21,-0.02 0.4,-0.07 0.58,-0.13c0.18,-0.07 0.33,-0.17 0.45,-0.3c0.12,-0.13 0.18,-0.31 0.18,-0.53c0,-0.22 -0.07,-0.39 -0.21,-0.52c-0.14,-0.13 -0.32,-0.24 -0.55,-0.32c-0.23,-0.08 -0.49,-0.15 -0.78,-0.21c-0.29,-0.05 -0.59,-0.11 -0.9,-0.17c-0.31,-0.06 -0.61,-0.13 -0.9,-0.22c-0.29,-0.09 -0.55,-0.21 -0.78,-0.36c-0.23,-0.15 -0.41,-0.34 -0.55,-0.57c-0.14,-0.23 -0.21,-0.52 -0.21,-0.87c0,-0.41 0.09,-0.76 0.28,-1.04c0.19,-0.28 0.42,-0.51 0.71,-0.69c0.29,-0.17 0.61,-0.3 0.96,-0.38c0.35,-0.08 0.7,-0.12 1.03,-0.12c0.51,0 1.03,0.06 1.55,0.17c0.52,0.12 0.98,0.34 1.41,0.67l-0.75,1.09z" id="XMLID_00000146480313303566324120000013384338560348251543_"/>
      <path class="st2" d="m331.37,106.93l-2.03,-2.56l-2.48,0l0,2.56l-1.33,0l0,-7.35l4,0c0.51,0 0.93,0.06 1.27,0.18c0.34,0.12 0.61,0.29 0.82,0.51c0.21,0.21 0.35,0.47 0.44,0.76c0.09,0.29 0.13,0.6 0.13,0.94c0,0.51 -0.14,0.96 -0.42,1.34c-0.28,0.38 -0.67,0.63 -1.18,0.74l2.41,2.88l-1.64,0zm-4.51,-6.13l0,2.46l2.57,0c0.19,0 0.37,-0.02 0.54,-0.07c0.17,-0.05 0.32,-0.12 0.46,-0.22c0.13,-0.1 0.24,-0.23 0.32,-0.38c0.08,-0.16 0.12,-0.35 0.12,-0.57c0,-0.22 -0.04,-0.41 -0.11,-0.56s-0.17,-0.28 -0.3,-0.37c-0.13,-0.1 -0.28,-0.17 -0.46,-0.21c-0.18,-0.04 -0.37,-0.07 -0.57,-0.07l-2.57,0l0,-0.01z" id="XMLID_00000079478758463199048940000000512441718643853757_"/>
      <path class="st2" d="m337.53,106.93l0,-7.35l6.03,0l0,1.21l-4.69,0l0,1.83l4.18,0l0,1.05l-4.18,0l0,2.02l4.81,0l0,1.24l-6.15,0z" id="XMLID_00000032623542818150836230000008192990477139557014_"/>
      <path class="st2" d="m349.93,103.97l0,2.96l-1.33,0l0,-7.35l5.99,0l0,1.22l-4.65,0l0,2.04l4.15,0l0,1.13l-4.16,0z" id="XMLID_00000008843901421372093010000009357433032157588875_"/>
      <path class="st2" d="m359.37,106.93l0,-7.35l1.33,0l0,6.11l4.58,0l0,1.24l-5.91,0z" id="XMLID_00000005236919050177658480000007084099145703293877_"/>
      <path class="st2" d="m369.98,106.93l0,-7.35l6.03,0l0,1.21l-4.69,0l0,1.83l4.18,0l0,1.05l-4.18,0l0,2.02l4.81,0l0,1.24l-6.15,0z" id="XMLID_00000170998043486453354300000001231167139040312473_"/>
      <path class="st2" d="m388.43,105.8c-0.14,0.18 -0.31,0.35 -0.53,0.5c-0.22,0.16 -0.46,0.29 -0.74,0.41c-0.28,0.12 -0.59,0.21 -0.93,0.28c-0.34,0.07 -0.7,0.1 -1.08,0.1c-0.61,0 -1.18,-0.09 -1.71,-0.26c-0.53,-0.17 -0.98,-0.42 -1.38,-0.74c-0.39,-0.32 -0.7,-0.72 -0.92,-1.2c-0.23,-0.47 -0.34,-1.02 -0.34,-1.63c0,-0.55 0.1,-1.06 0.29,-1.53c0.19,-0.46 0.48,-0.87 0.86,-1.2c0.38,-0.34 0.85,-0.6 1.42,-0.79c0.56,-0.19 1.22,-0.28 1.98,-0.28c0.39,0 0.75,0.04 1.09,0.1c0.33,0.07 0.64,0.16 0.9,0.27c0.27,0.11 0.5,0.23 0.69,0.37c0.19,0.14 0.34,0.29 0.45,0.44l-0.84,1.02c-0.24,-0.31 -0.56,-0.55 -0.96,-0.72c-0.4,-0.16 -0.89,-0.25 -1.48,-0.25c-0.49,0 -0.91,0.06 -1.29,0.18c-0.37,0.12 -0.69,0.3 -0.94,0.52c-0.26,0.23 -0.45,0.49 -0.58,0.81c-0.13,0.31 -0.2,0.66 -0.2,1.05c0,0.4 0.07,0.75 0.21,1.07c0.14,0.32 0.35,0.59 0.6,0.81c0.26,0.22 0.57,0.39 0.93,0.51c0.36,0.12 0.77,0.18 1.21,0.18c0.54,0 1.02,-0.08 1.44,-0.23c0.42,-0.15 0.75,-0.4 1,-0.75l0.85,0.96z" id="XMLID_00000021101229166153670580000007211394264916324282_"/>
      <path class="st2" d="m395.58,106.93l0,-6.13l-2.78,0l0,-1.22l6.9,0l0,1.22l-2.78,0l0,6.13l-1.33,0z" id="XMLID_00000068664925681984263010000000434540914256620217_"/>
     </g>
    </g>
   </g>
  </g>
 </g>
</svg>