<?xml version="1.0" encoding="utf-8"?>
<!-- Generator: Adobe Illustrator 28.2.0, SVG Export Plug-In . SVG Version: 6.00 Build 0)  -->
<svg version="1.1" id="Layer_1" xmlns="http://www.w3.org/2000/svg" xmlns:xlink="http://www.w3.org/1999/xlink" x="0px" y="0px"
	 viewBox="0 0 600 600" style="enable-background:new 0 0 600 600;" xml:space="preserve">
<style type="text/css">
	.st0{fill:#7435FF;}
	.st1{fill:#FC5E81;}
	.st2{fill:#FFAF00;}
	.st3{fill:#140047;}
	.st4{fill:#4FE1D6;}
</style>
<g>
	<g>
		<g>
			<path class="st0" d="M258.76,288.1l-5.28-18.9l-8.8,2.2l1.7,5.29l-5.77,9.27l6.52,4.06l2.33-3.74l2.11,6.56
				c1.08,3.36,4.5,5.37,7.96,4.67l46.64-18.79L258.76,288.1z"/>
			<path class="st1" d="M242.06,233.21l16.34-10.86l-4.82-7.69l-4.5,3.25l-10.6-2.62l-1.84,7.45l4.28,1.06l-5.59,4.03
				c-2.86,2.06-3.71,5.94-1.99,9.01l32.28,38.55L242.06,233.21z"/>
			<path class="st2" d="M289.1,200.36l15.38,12.18l5.83-6.96l-4.48-3.28l-0.78-10.89l-7.66,0.55l0.32,4.39l-5.56-4.07
				c-2.84-2.08-6.8-1.7-9.19,0.9l-26.69,42.61L289.1,200.36z"/>
			<path class="st3" d="M348.31,247.36l-2.89-7.11l-4.08,1.66l2.15-6.55c1.1-3.35-0.49-6.99-3.69-8.46l-48.77-12.21l43.85,20.27
				l-6.83,18.39l8.42,3.39l1.73-5.27L348.31,247.36z"/>
			<path class="st4" d="M316.12,289.18l-19.6-0.81l-0.62,9.06l5.55,0.02l7.03,8.35l5.87-4.94l-2.84-3.37l6.89,0.02
				c3.52,0.01,6.5-2.62,6.9-6.12l-3.46-50.16L316.12,289.18z"/>
		</g>
		<g>
			<rect x="279.86" y="237.91" class="st3" width="9.55" height="9.55"/>
			<rect x="291.35" y="237.91" class="st3" width="9.55" height="9.55"/>
			<rect x="279.86" y="249.29" class="st3" width="9.55" height="9.55"/>
			<rect x="291.35" y="249.29" class="st3" width="9.55" height="9.55"/>
		</g>
	</g>
	<g id="XMLID_4160_">
		<path id="XMLID_6847_" class="st3" d="M200.1,346.14c1.23-2.28,1.88-4.87,1.88-7.5c0-2.58-0.65-5.14-1.88-7.43
			c-2.81-5.1-8.13-8.26-13.89-8.26h-20.63v56.92h4.28v-14.91c0-5.82,4.77-10.55,10.62-10.55h6.66c5.82,0,10.55,4.73,10.55,10.55
			v14.91h4.28v-14.91c0-2.51-0.65-5-1.89-7.21c-1.36-2.39-3.3-4.35-5.62-5.69C196.8,350.61,198.75,348.58,200.1,346.14z
			 M169.86,327.23h16.34c6.33,0,11.49,5.12,11.49,11.41c0,6.33-5.15,11.49-11.49,11.49h-5.72c-2.56,0-5.08,0.65-7.29,1.89
			c-1.23,0.7-2.35,1.57-3.33,2.57V327.23z"/>
		<path id="XMLID_6839_" class="st3" d="M245.58,353.16c-0.28-0.85-0.6-1.81-1.05-2.72c-3.16-6.23-9.42-10.1-16.34-10.1
			c-6.92,0-13.18,3.87-16.34,10.1l-0.01,0.02c-1.23,2.54-1.85,5.26-1.85,8.08v3.13c0,2.76,0.62,5.46,1.86,8.02
			c3.18,6.28,9.44,10.18,16.34,10.18c6.89,0,13.15-3.9,16.34-10.19c0.53-1.07,0.87-2.11,1.17-3.09l0.51-1.66h-4.47l-0.29,0.89
			c-1.83,5.7-7.28,9.68-13.27,9.68c-7.48,0-13.6-5.9-13.9-13.26h32.1v-3.71c0-1.64-0.21-3.21-0.69-5.03L245.58,353.16z
			 M228.19,344.62c5.99,0,11.44,3.98,13.27,9.68c0.38,1.19,0.58,2.34,0.63,3.58h-27.8C214.63,350.51,220.73,344.62,228.19,344.62z"
			/>
		<path id="XMLID_6836_" class="st3" d="M257.77,330.49c-1.23,2.2-1.89,4.72-1.89,7.28v2.56h-6.19v4.28h6.19v35.25h4.28v-35.25h6.19
			v-4.28h-6.19v-2.56c0-5.82,4.73-10.55,10.55-10.55h4.65v-4.36h-4.65C265.4,322.87,260.44,325.79,257.77,330.49z"/>
		<rect id="XMLID_6833_" x="278.73" y="305.79" class="st3" width="4.28" height="91.16"/>
		<path id="XMLID_4653_" class="st3" d="M292.11,353.51c-0.48,1.81-0.69,3.38-0.69,5.03v3.71h32.1c-0.3,7.36-6.42,13.26-13.9,13.26
			c-5.99,0-11.44-3.98-13.27-9.68l-0.29-0.89h-4.47l0.51,1.66c0.37,1.19,0.69,2.13,1.18,3.09c3.19,6.29,9.45,10.19,16.34,10.19
			c6.89,0,13.15-3.9,16.34-10.18c1.24-2.57,1.86-5.26,1.86-8.02v-3.13c0-2.82-0.62-5.53-1.85-8.08l-0.01-0.02
			c-3.16-6.23-9.42-10.1-16.34-10.1c-6.92,0-13.18,3.87-16.34,10.1c-0.46,0.92-0.78,1.88-1.06,2.73L292.11,353.51z M323.52,357.88
			h-27.8c0.05-1.24,0.26-2.39,0.63-3.58c1.83-5.7,7.28-9.68,13.27-9.68C317.07,344.62,323.18,350.51,323.52,357.88z"/>
		<path id="XMLID_4369_" class="st3" d="M352.45,344.62c-5.99,0-11.45,4.01-13.27,9.76l-0.28,0.89h-4.48l0.51-1.66
			c0.33-1.06,0.66-2.16,1.18-3.09c3.14-6.28,9.4-10.19,16.34-10.19c6.94,0,13.2,3.9,16.34,10.19c1.22,2.43,1.86,5.2,1.86,8.01v3.13
			c0,2.81-0.64,5.58-1.86,8.01c-3.14,6.28-9.4,10.19-16.34,10.19c-6.94,0-13.2-3.9-16.34-10.19c-0.53-1.07-0.87-2.11-1.18-3.09
			l-0.51-1.66h4.47l0.29,0.89c1.84,5.75,7.3,9.76,13.27,9.76c7.67,0,13.91-6.24,13.91-13.91v-3.13
			C366.36,350.86,360.12,344.62,352.45,344.62z"/>
		<path id="XMLID_4357_" class="st3" d="M386.04,368.87v-24.25h-6.19v-4.28h6.19v-8.77h4.28v8.77h6.19v4.28h-6.19v24.33
			c0,2.24-0.68,4.39-1.96,6.23c-2.11,2.93-5.49,4.68-9.03,4.68h-6.14v-4.36h6.14C383.03,375.5,386.04,372.53,386.04,368.87z"/>
		<path id="XMLID_4346_" class="st3" d="M433.76,353.59l-0.14-0.44c-0.28-0.85-0.6-1.8-1.05-2.71c-3.16-6.23-9.42-10.1-16.34-10.1
			c-6.92,0-13.18,3.87-16.35,10.12c-1.23,2.54-1.85,5.26-1.85,8.08v3.13c0,2.76,0.62,5.45,1.86,8.02
			c3.18,6.28,9.44,10.18,16.34,10.18c6.89,0,13.15-3.9,16.34-10.19c0.53-1.07,0.87-2.11,1.19-3.14c0.45-1.71,0.67-3.3,0.67-4.87
			v-3.13C434.43,356.89,434.22,355.32,433.76,353.59z M416.23,375.5c-7.67,0-13.91-6.21-13.91-13.84v-3.13
			c0-7.67,6.24-13.91,13.91-13.91c5.99,0,11.44,3.98,13.27,9.68c0.44,1.39,0.64,2.74,0.64,4.23v3.13c0,1.42-0.21,2.78-0.64,4.15
			C427.67,371.52,422.21,375.5,416.23,375.5z"/>
		<g id="XMLID_7094_">
			<g>
				<path id="XMLID_00000176747016745920333240000016283749255218953376_" class="st3" d="M198.97,364.96
					c0-6.5-5.33-11.83-11.83-11.83h-6.66c-6.58,0-11.91,5.33-11.91,11.83v13.63h-1.72v-54.36h19.35c5.48,0,10.26,3.05,12.77,7.6
					c1.1,2.04,1.72,4.39,1.72,6.81c0,2.51-0.63,4.86-1.72,6.89c-1.64,2.98-4.31,5.33-7.44,6.58c3.13,1.1,5.8,3.37,7.44,6.27
					c1.1,1.96,1.72,4.23,1.72,6.58v13.63h-1.72V364.96z M168.58,358.38c1.25-2.19,3.05-3.99,5.25-5.25c1.96-1.1,4.23-1.72,6.66-1.72
					h5.72c7.05,0,12.77-5.72,12.77-12.77c0-6.97-5.72-12.69-12.77-12.69h-17.62V358.38z"/>
				<path id="XMLID_00000031899746229919079550000008555364205515035264_" class="st3" d="M212.99,351.01
					c2.82-5.56,8.54-9.4,15.19-9.4c6.66,0,12.38,3.84,15.2,9.4c0.47,0.94,0.78,1.96,1.1,2.9c0.39,1.49,0.63,2.98,0.63,4.62v2.43
					h-32.11v0.7c0,8.3,6.81,15.12,15.19,15.12c6.74,0,12.53-4.46,14.49-10.57h1.8c-0.31,1.02-0.63,1.96-1.1,2.9
					c-2.82,5.56-8.54,9.48-15.2,9.48c-6.66,0-12.38-3.92-15.19-9.48c-1.1-2.27-1.72-4.78-1.72-7.44v-3.13
					C211.27,355.79,211.89,353.29,212.99,351.01z M243.38,359.16v-0.63c0-1.64-0.23-3.13-0.7-4.62
					c-1.96-6.11-7.75-10.57-14.49-10.57c-8.38,0-15.19,6.81-15.19,15.2v0.63H243.38z"/>
				<path id="XMLID_00000042002892944387451180000017375811592572357531_" class="st3" d="M257.17,378.59v-35.25h-6.19v-1.72h6.19
					v-3.84c0-2.43,0.63-4.7,1.72-6.66c2.35-4.15,6.81-6.97,11.83-6.97h3.37v1.8h-3.37c-6.5,0-11.83,5.33-11.83,11.83v3.84h6.19v1.72
					h-6.19v35.25H257.17z"/>
			</g>
		</g>
		<g id="XMLID_7033_">
			<g>
				<path id="XMLID_00000035513789903608009390000013225342654440545667_" class="st2" d="M295.28,394.71v-12.25h2.22v12.25H295.28z
					"/>
				<path id="XMLID_00000000207009084341340460000016562811813362040452_" class="st2" d="M314.29,394.71l-7.62-8.61v8.61h-2.19
					v-12.25h2.25l7.53,8.93v-8.93h2.17v12.25H314.29z"/>
				<path id="XMLID_00000075156615788782467370000010400620149865783478_" class="st2" d="M327,394.71V384.5h-4.61v-2.03h11.44v2.03
					h-4.61v10.21H327z"/>
				<path id="XMLID_00000085954401066562524890000007267315875905087364_" class="st2" d="M339.82,394.71v-12.25h10.01v2.02h-7.79
					v3.06h6.93v1.74h-6.93v3.36h7.98v2.07H339.82z"/>
				<path id="XMLID_00000122721135740590143340000000952695105428744867_" class="st2" d="M366.18,394.71l-3.36-4.27h-4.12v4.27
					h-2.22v-12.25h6.64c0.84,0,1.55,0.1,2.12,0.31c0.57,0.21,1.02,0.49,1.37,0.85c0.34,0.36,0.58,0.78,0.73,1.26
					c0.14,0.48,0.21,1.01,0.21,1.56c0,0.85-0.23,1.6-0.69,2.23c-0.46,0.63-1.12,1.05-1.97,1.24l4,4.8H366.18z M358.69,384.5v4.1
					h4.27c0.32,0,0.62-0.04,0.91-0.12c0.28-0.08,0.54-0.2,0.76-0.37c0.22-0.17,0.4-0.38,0.53-0.64c0.13-0.26,0.2-0.58,0.2-0.96
					c0-0.36-0.06-0.67-0.18-0.93c-0.12-0.26-0.29-0.46-0.5-0.62c-0.22-0.16-0.47-0.28-0.77-0.35c-0.3-0.07-0.62-0.11-0.96-0.11
					H358.69z"/>
				<path id="XMLID_00000065787632176885557540000013862899454054207369_" class="st2" d="M374.78,394.71v-12.25H377v12.25H374.78z"
					/>
				<path id="XMLID_00000160896974705872374440000002615183135231224203_" class="st2" d="M398.01,388.75
					c0,0.96-0.18,1.82-0.54,2.59c-0.36,0.77-0.86,1.42-1.5,1.96c-0.64,0.54-1.41,0.96-2.3,1.26c-0.89,0.3-1.86,0.44-2.92,0.44
					c-1.01,0-1.96-0.15-2.83-0.44c-0.87-0.3-1.63-0.71-2.27-1.26c-0.64-0.54-1.15-1.19-1.52-1.96c-0.37-0.77-0.56-1.63-0.56-2.59
					c0-0.96,0.17-1.83,0.51-2.62s0.83-1.47,1.46-2.05c0.63-0.58,1.39-1.02,2.26-1.34c0.88-0.32,1.86-0.48,2.94-0.48
					c1.06,0,2.03,0.16,2.92,0.48s1.65,0.77,2.3,1.34c0.64,0.57,1.15,1.26,1.5,2.05S398.01,387.79,398.01,388.75z M395.69,388.74
					c0-0.67-0.12-1.28-0.37-1.82c-0.24-0.54-0.59-1-1.03-1.38c-0.44-0.38-0.96-0.67-1.56-0.88c-0.6-0.2-1.26-0.31-1.98-0.31
					c-0.71,0-1.36,0.1-1.96,0.31c-0.6,0.21-1.12,0.5-1.56,0.88c-0.44,0.38-0.78,0.84-1.02,1.38s-0.37,1.15-0.37,1.82
					c0,0.67,0.13,1.26,0.38,1.78c0.26,0.52,0.61,0.95,1.05,1.31c0.44,0.36,0.97,0.63,1.56,0.82c0.6,0.19,1.24,0.28,1.92,0.28
					c0.72,0,1.38-0.09,1.98-0.28c0.6-0.19,1.12-0.46,1.56-0.82c0.44-0.36,0.78-0.8,1.03-1.31
					C395.57,390,395.69,389.41,395.69,388.74z"/>
				<path id="XMLID_00000042012833258819096680000000870071770130619779_" class="st2" d="M414.2,394.71l-3.36-4.27h-4.12v4.27
					h-2.22v-12.25h6.64c0.84,0,1.55,0.1,2.12,0.31c0.57,0.21,1.02,0.49,1.37,0.85c0.34,0.36,0.58,0.78,0.73,1.26
					c0.14,0.48,0.21,1.01,0.21,1.56c0,0.85-0.23,1.6-0.69,2.23c-0.46,0.63-1.12,1.05-1.97,1.24l4,4.8H414.2z M406.72,384.5v4.1h4.27
					c0.32,0,0.62-0.04,0.91-0.12c0.28-0.08,0.54-0.2,0.76-0.37c0.22-0.17,0.4-0.38,0.53-0.64c0.13-0.26,0.2-0.58,0.2-0.96
					c0-0.36-0.06-0.67-0.18-0.93c-0.12-0.26-0.29-0.46-0.5-0.62c-0.22-0.16-0.47-0.28-0.77-0.35c-0.3-0.07-0.62-0.11-0.96-0.11
					H406.72z"/>
				<path id="XMLID_00000107576042618833888700000011647805372244930981_" class="st2" d="M430.75,385.49
					c-0.51-0.43-1.09-0.75-1.73-0.96c-0.64-0.21-1.29-0.31-1.95-0.31c-0.25,0-0.53,0.02-0.85,0.06c-0.31,0.04-0.61,0.12-0.89,0.23
					c-0.28,0.11-0.52,0.27-0.71,0.48c-0.19,0.21-0.29,0.47-0.29,0.8c0,0.32,0.08,0.58,0.25,0.77c0.17,0.19,0.39,0.35,0.67,0.47
					c0.28,0.12,0.6,0.22,0.96,0.29c0.36,0.07,0.73,0.14,1.1,0.21c0.65,0.11,1.28,0.25,1.9,0.4c0.62,0.15,1.16,0.37,1.63,0.64
					c0.47,0.27,0.85,0.63,1.14,1.06c0.29,0.43,0.43,0.99,0.43,1.67c0,0.74-0.16,1.35-0.49,1.82c-0.32,0.47-0.74,0.84-1.26,1.12
					c-0.51,0.27-1.08,0.46-1.69,0.57c-0.61,0.11-1.21,0.16-1.79,0.16c-0.51,0-1.03-0.04-1.55-0.12c-0.52-0.08-1.03-0.21-1.52-0.38
					c-0.49-0.18-0.94-0.41-1.37-0.71c-0.42-0.3-0.79-0.67-1.09-1.11l1.61-1.49c0.23,0.34,0.49,0.63,0.79,0.86
					c0.3,0.23,0.63,0.42,0.97,0.56c0.35,0.14,0.71,0.25,1.1,0.32c0.39,0.07,0.77,0.1,1.16,0.1c0.28,0,0.6-0.02,0.95-0.05
					c0.35-0.03,0.67-0.11,0.97-0.22c0.3-0.11,0.54-0.28,0.74-0.5c0.2-0.22,0.3-0.52,0.3-0.88c0-0.36-0.12-0.65-0.35-0.87
					c-0.23-0.22-0.54-0.39-0.92-0.53c-0.38-0.14-0.81-0.25-1.3-0.34c-0.48-0.09-0.98-0.18-1.49-0.28c-0.51-0.1-1.01-0.22-1.49-0.37
					c-0.49-0.15-0.92-0.35-1.3-0.6c-0.38-0.25-0.69-0.57-0.92-0.96c-0.23-0.39-0.35-0.87-0.35-1.45c0-0.68,0.15-1.26,0.47-1.73
					c0.31-0.47,0.71-0.85,1.19-1.14c0.48-0.29,1.01-0.5,1.6-0.63c0.59-0.13,1.16-0.2,1.72-0.2c0.85,0,1.71,0.1,2.57,0.29
					c0.86,0.19,1.64,0.56,2.33,1.11L430.75,385.49z"/>
			</g>
		</g>
		<g id="XMLID_4263_">
			<g>
				<path id="XMLID_00000178922254097565429240000014945015369149717133_" class="st2" d="M173.71,408.87v-5.19l-2.75,5.19h-0.63
					l-2.79-5.19v5.19h-1.26v-7.35h1.57l2.81,5.38l2.81-5.38h1.52v7.35H173.71z"/>
				<path id="XMLID_00000126291710480293312910000007849802129874907299_" class="st2" d="M186.9,408.87l-0.96-1.93h-3.96
					l-0.96,1.93h-1.51l3.81-7.35h1.28l3.87,7.35H186.9z M183.97,402.98l-1.49,2.91h2.95L183.97,402.98z"/>
				<path id="XMLID_00000103245491774218231810000007225313858051658650_" class="st2" d="M196.78,404.33l3.68,4.54h-1.76l-2.9-3.78
					l-1.45,1.12v2.66h-1.33v-7.35h1.33v3.19l4.13-3.19h1.89L196.78,404.33z"/>
				<path id="XMLID_00000117657653171986380630000015890098005618766765_" class="st2" d="M205,408.87v-7.35h6v1.21h-4.67v1.83h4.16
					v1.05h-4.16v2.02h4.79v1.24H205z"/>
				<path id="XMLID_00000169557434825137219220000011080724738594055065_" class="st2" d="M225.83,408.87v-2.96l-3.62-4.39h1.72
					l2.59,3.22l2.57-3.22h1.64l-3.57,4.4v2.95H225.83z"/>
				<path id="XMLID_00000081626829681059614110000001607015538569150387_" class="st2" d="M242.6,405.29c0,0.57-0.11,1.09-0.32,1.55
					c-0.22,0.46-0.52,0.85-0.9,1.18c-0.39,0.32-0.85,0.58-1.38,0.75c-0.53,0.18-1.12,0.27-1.75,0.27c-0.61,0-1.17-0.09-1.7-0.27
					c-0.52-0.18-0.98-0.43-1.36-0.75c-0.39-0.32-0.69-0.72-0.91-1.18c-0.22-0.46-0.33-0.98-0.33-1.55c0-0.57,0.1-1.1,0.31-1.57
					c0.2-0.48,0.5-0.88,0.88-1.23c0.38-0.35,0.83-0.61,1.36-0.8c0.53-0.19,1.11-0.29,1.76-0.29c0.64,0,1.22,0.1,1.75,0.29
					c0.53,0.19,0.99,0.46,1.38,0.8c0.39,0.35,0.69,0.75,0.9,1.23C242.5,404.19,242.6,404.72,242.6,405.29z M241.21,405.29
					c0-0.4-0.07-0.77-0.22-1.09c-0.15-0.32-0.35-0.6-0.61-0.83c-0.26-0.23-0.58-0.4-0.94-0.53c-0.36-0.12-0.76-0.18-1.19-0.18
					c-0.42,0-0.82,0.06-1.18,0.18c-0.36,0.12-0.67,0.3-0.94,0.53c-0.26,0.23-0.47,0.5-0.61,0.83c-0.15,0.32-0.22,0.69-0.22,1.09
					c0,0.4,0.08,0.76,0.23,1.07c0.15,0.31,0.36,0.57,0.63,0.79c0.27,0.21,0.58,0.38,0.94,0.49c0.36,0.11,0.74,0.17,1.15,0.17
					c0.43,0,0.83-0.06,1.19-0.17c0.36-0.11,0.67-0.28,0.94-0.49c0.26-0.21,0.47-0.48,0.61-0.79
					C241.14,406.05,241.21,405.69,241.21,405.29z"/>
				<path id="XMLID_00000182504636015339446630000014826639740636850357_" class="st2" d="M253.3,401.52h1.33v4.52
					c0,0.57-0.1,1.04-0.31,1.43c-0.21,0.38-0.47,0.69-0.81,0.93c-0.33,0.24-0.72,0.4-1.15,0.5c-0.43,0.1-0.87,0.15-1.33,0.15
					c-0.46,0-0.9-0.05-1.33-0.15c-0.43-0.1-0.81-0.27-1.15-0.5c-0.33-0.24-0.6-0.54-0.81-0.93c-0.2-0.38-0.31-0.86-0.31-1.43v-4.52
					h1.33v4.46c0,0.62,0.2,1.08,0.61,1.38c0.41,0.3,0.96,0.45,1.66,0.45c0.7,0,1.25-0.15,1.66-0.45c0.4-0.3,0.6-0.76,0.6-1.38
					V401.52z"/>
				<path id="XMLID_00000072972179006683871190000006017223963548157868_" class="st2" d="M265.55,408.87l-2.02-2.56h-2.47v2.56
					h-1.33v-7.35h3.99c0.51,0,0.93,0.06,1.27,0.18c0.34,0.12,0.61,0.29,0.82,0.51c0.21,0.21,0.35,0.47,0.44,0.76
					c0.09,0.29,0.13,0.6,0.13,0.94c0,0.51-0.14,0.96-0.42,1.34c-0.28,0.38-0.67,0.63-1.18,0.74l2.4,2.88H265.55z M261.06,402.74
					v2.46h2.56c0.19,0,0.37-0.02,0.54-0.07c0.17-0.05,0.32-0.12,0.46-0.22c0.13-0.1,0.24-0.23,0.32-0.38
					c0.08-0.16,0.12-0.35,0.12-0.57c0-0.22-0.04-0.41-0.11-0.56c-0.07-0.15-0.17-0.28-0.3-0.37c-0.13-0.1-0.28-0.17-0.46-0.21
					c-0.18-0.04-0.37-0.07-0.57-0.07H261.06z"/>
				<path id="XMLID_00000068642240969037500330000004694137858904013216_" class="st2" d="M278.56,408.87v-7.35h3.53
					c0.7,0,1.31,0.09,1.83,0.28c0.52,0.18,0.94,0.44,1.28,0.77c0.33,0.33,0.58,0.72,0.74,1.16c0.16,0.45,0.24,0.94,0.24,1.47
					c0,0.53-0.1,1.02-0.29,1.47c-0.19,0.45-0.47,0.83-0.82,1.16c-0.36,0.32-0.79,0.58-1.29,0.76c-0.51,0.18-1.07,0.28-1.68,0.28
					H278.56z M282.01,407.63c0.41,0,0.79-0.05,1.13-0.15c0.34-0.1,0.64-0.25,0.89-0.45c0.25-0.2,0.45-0.45,0.59-0.75
					c0.14-0.3,0.21-0.65,0.21-1.06c0-0.83-0.24-1.45-0.72-1.86c-0.48-0.42-1.18-0.63-2.1-0.63h-2.11v4.89H282.01z"/>
				<path id="XMLID_00000164481648068722509260000014756970072703570838_" class="st2" d="M296.91,408.87l-2.02-2.56h-2.47v2.56
					h-1.33v-7.35h3.99c0.51,0,0.93,0.06,1.27,0.18c0.34,0.12,0.61,0.29,0.82,0.51c0.21,0.21,0.35,0.47,0.44,0.76
					c0.09,0.29,0.13,0.6,0.13,0.94c0,0.51-0.14,0.96-0.42,1.34c-0.28,0.38-0.67,0.63-1.18,0.74l2.4,2.88H296.91z M292.42,402.74
					v2.46h2.56c0.19,0,0.37-0.02,0.54-0.07c0.17-0.05,0.32-0.12,0.46-0.22c0.13-0.1,0.24-0.23,0.32-0.38
					c0.08-0.16,0.12-0.35,0.12-0.57c0-0.22-0.04-0.41-0.11-0.56s-0.17-0.28-0.3-0.37c-0.13-0.1-0.28-0.17-0.46-0.21
					c-0.18-0.04-0.37-0.07-0.57-0.07H292.42z"/>
				<path id="XMLID_00000078043578979059105090000002271900059935848338_" class="st2" d="M303.06,408.87v-7.35h6.01v1.21h-4.67
					v1.83h4.16v1.05h-4.16v2.02h4.79v1.24H303.06z"/>
				<path id="XMLID_00000129179420552715852110000003794334925117129917_" class="st2" d="M320.83,408.87l-0.96-1.93h-3.96
					l-0.96,1.93h-1.51l3.81-7.35h1.28l3.87,7.35H320.83z M317.89,402.98l-1.49,2.91h2.95L317.89,402.98z"/>
				<path id="XMLID_00000029749741104807641660000002356596087039034527_" class="st2" d="M334.33,408.87v-5.19l-2.75,5.19h-0.63
					l-2.79-5.19v5.19h-1.26v-7.35h1.57l2.81,5.38l2.81-5.38h1.52v7.35H334.33z"/>
				<path id="XMLID_00000146480313303566324120000013384338560348251543_" class="st2" d="M345.78,403.33
					c-0.31-0.26-0.65-0.45-1.04-0.57c-0.38-0.12-0.77-0.18-1.17-0.18c-0.15,0-0.32,0.01-0.51,0.04c-0.19,0.02-0.37,0.07-0.53,0.14
					c-0.17,0.07-0.31,0.16-0.42,0.29c-0.12,0.12-0.17,0.28-0.17,0.48c0,0.19,0.05,0.35,0.15,0.46c0.1,0.12,0.23,0.21,0.4,0.28
					c0.17,0.07,0.36,0.13,0.57,0.17c0.22,0.04,0.44,0.09,0.66,0.13c0.39,0.07,0.77,0.15,1.14,0.24c0.37,0.09,0.7,0.22,0.98,0.38
					c0.28,0.16,0.51,0.38,0.68,0.64c0.17,0.26,0.26,0.59,0.26,1c0,0.44-0.1,0.81-0.29,1.09c-0.19,0.28-0.45,0.51-0.75,0.67
					c-0.31,0.16-0.65,0.28-1.01,0.34c-0.37,0.07-0.73,0.1-1.08,0.1c-0.31,0-0.62-0.02-0.93-0.07c-0.32-0.05-0.62-0.12-0.91-0.23
					c-0.29-0.1-0.57-0.25-0.82-0.42c-0.25-0.18-0.47-0.4-0.66-0.67l0.96-0.89c0.14,0.21,0.29,0.38,0.48,0.52
					c0.18,0.14,0.38,0.25,0.58,0.34c0.21,0.09,0.43,0.15,0.66,0.19c0.23,0.04,0.46,0.06,0.7,0.06c0.17,0,0.36-0.01,0.57-0.03
					c0.21-0.02,0.4-0.07,0.58-0.13c0.18-0.07,0.33-0.17,0.45-0.3c0.12-0.13,0.18-0.31,0.18-0.53c0-0.22-0.07-0.39-0.21-0.52
					c-0.14-0.13-0.32-0.24-0.55-0.32c-0.23-0.08-0.49-0.15-0.78-0.21c-0.29-0.05-0.59-0.11-0.9-0.17c-0.31-0.06-0.61-0.13-0.9-0.22
					c-0.29-0.09-0.55-0.21-0.78-0.36c-0.23-0.15-0.41-0.34-0.55-0.57c-0.14-0.23-0.21-0.52-0.21-0.87c0-0.41,0.09-0.76,0.28-1.04
					c0.19-0.28,0.42-0.51,0.71-0.69c0.29-0.17,0.61-0.3,0.96-0.38c0.35-0.08,0.7-0.12,1.03-0.12c0.51,0,1.03,0.06,1.54,0.17
					c0.52,0.12,0.98,0.34,1.4,0.67L345.78,403.33z"/>
				<path id="XMLID_00000079478758463199048940000000512441718643853757_" class="st2" d="M364.33,408.87l-2.02-2.56h-2.47v2.56
					h-1.33v-7.35h3.99c0.51,0,0.93,0.06,1.27,0.18c0.34,0.12,0.61,0.29,0.82,0.51c0.21,0.21,0.35,0.47,0.44,0.76
					c0.09,0.29,0.13,0.6,0.13,0.94c0,0.51-0.14,0.96-0.42,1.34c-0.28,0.38-0.67,0.63-1.18,0.74l2.4,2.88H364.33z M359.84,402.74
					v2.46h2.56c0.19,0,0.37-0.02,0.54-0.07c0.17-0.05,0.32-0.12,0.46-0.22c0.13-0.1,0.24-0.23,0.32-0.38
					c0.08-0.16,0.12-0.35,0.12-0.57c0-0.22-0.04-0.41-0.11-0.56s-0.17-0.28-0.3-0.37c-0.13-0.1-0.28-0.17-0.46-0.21
					c-0.18-0.04-0.37-0.07-0.57-0.07H359.84z"/>
				<path id="XMLID_00000032623542818150836230000008192990477139557014_" class="st2" d="M370.47,408.87v-7.35h6.01v1.21h-4.67
					v1.83h4.16v1.05h-4.16v2.02h4.79v1.24H370.47z"/>
				<path id="XMLID_00000008843901421372093010000009357433032157588875_" class="st2" d="M382.82,405.91v2.96h-1.33v-7.35h5.97
					v1.22h-4.63v2.04h4.13v1.13H382.82z"/>
				<path id="XMLID_00000005236919050177658480000007084099145703293877_" class="st2" d="M392.23,408.87v-7.35h1.33v6.11h4.56v1.24
					H392.23z"/>
				<path id="XMLID_00000170998043486453354300000001231167139040312473_" class="st2" d="M402.8,408.87v-7.35h6.01v1.21h-4.67v1.83
					h4.16v1.05h-4.16v2.02h4.79v1.24H402.8z"/>
				<path id="XMLID_00000021101229166153670580000007211394264916324282_" class="st2" d="M421.18,407.74
					c-0.14,0.18-0.31,0.35-0.53,0.5c-0.22,0.16-0.46,0.29-0.74,0.41c-0.28,0.12-0.59,0.21-0.93,0.28c-0.34,0.07-0.7,0.1-1.08,0.1
					c-0.61,0-1.18-0.09-1.7-0.26c-0.53-0.17-0.98-0.42-1.37-0.74c-0.39-0.32-0.7-0.72-0.92-1.2c-0.23-0.47-0.34-1.02-0.34-1.63
					c0-0.55,0.1-1.06,0.29-1.53c0.19-0.46,0.48-0.87,0.86-1.2c0.38-0.34,0.85-0.6,1.41-0.79c0.56-0.19,1.22-0.28,1.97-0.28
					c0.39,0,0.75,0.04,1.09,0.1c0.33,0.07,0.64,0.16,0.9,0.27c0.27,0.11,0.5,0.23,0.69,0.37c0.19,0.14,0.34,0.29,0.45,0.44
					l-0.84,1.02c-0.24-0.31-0.56-0.55-0.96-0.72c-0.4-0.16-0.89-0.25-1.47-0.25c-0.49,0-0.91,0.06-1.29,0.18
					c-0.37,0.12-0.69,0.3-0.94,0.52c-0.26,0.23-0.45,0.49-0.58,0.81c-0.13,0.31-0.2,0.66-0.2,1.05c0,0.4,0.07,0.75,0.21,1.07
					c0.14,0.32,0.35,0.59,0.6,0.81c0.26,0.22,0.57,0.39,0.93,0.51c0.36,0.12,0.77,0.18,1.21,0.18c0.54,0,1.02-0.08,1.43-0.23
					c0.42-0.15,0.75-0.4,1-0.75L421.18,407.74z"/>
				<path id="XMLID_00000068664925681984263010000000434540914256620217_" class="st2" d="M428.3,408.87v-6.13h-2.77v-1.22h6.87
					v1.22h-2.77v6.13H428.3z"/>
			</g>
		</g>
	</g>
</g>
</svg>
