<svg transform="scale(1)" id="_0624_Workflow" xmlns="http://www.w3.org/2000/svg" xmlns:xlink="http://www.w3.org/1999/xlink" viewBox="0 0 500 500" class="show_show__wrapper__graphic__5Waiy "><title>React</title><defs><style>.cls-1{fill:url(#linear-gradient);}.cls-1,.cls-2,.cls-3,.cls-4,.cls-5,.cls-6,.cls-7,.cls-8,.cls-9,.cls-10,.cls-11,.cls-12,.cls-13,.cls-14,.cls-15,.cls-16,.cls-17,.cls-18,.cls-19,.cls-20,.cls-21,.cls-22,.cls-23,.cls-24{stroke-width:0px;}.cls-2{isolation:isolate;opacity:.18;}.cls-2,.cls-24{fill:#68e1fd;}.cls-3{fill:url(#linear-gradient-11);}.cls-4{fill:url(#linear-gradient-12);}.cls-5{fill:url(#linear-gradient-13);}.cls-6{fill:url(#linear-gradient-10);}.cls-7{fill:url(#linear-gradient-17);}.cls-8{fill:url(#linear-gradient-16);}.cls-9{fill:url(#linear-gradient-19);}.cls-10{fill:url(#linear-gradient-15);}.cls-11{fill:url(#linear-gradient-18);}.cls-12{fill:url(#linear-gradient-14);}.cls-13{fill:url(#linear-gradient-4);}.cls-14{fill:url(#linear-gradient-2);}.cls-15{fill:url(#linear-gradient-3);}.cls-16{fill:url(#linear-gradient-8);}.cls-17{fill:url(#linear-gradient-9);}.cls-18{fill:url(#linear-gradient-7);}.cls-19{fill:url(#linear-gradient-5);}.cls-20{fill:url(#linear-gradient-6);}.cls-21{fill:#231f20;}.cls-22{fill:#fff;}.cls-23{fill:#ffaa71;}</style><linearGradient id="linear-gradient" x1="309.5" y1="4240.38" x2="215.85" y2="4159.57" gradientTransform="translate(-56 4546) scale(1 -1)" gradientUnits="userSpaceOnUse"><stop offset="0" stop-color="#231f20"></stop><stop offset=".08" stop-color="#231f20" stop-opacity=".69"></stop><stop offset=".21" stop-color="#231f20" stop-opacity=".32"></stop><stop offset="1" stop-color="#231f20" stop-opacity="0"></stop></linearGradient><linearGradient id="linear-gradient-2" x1="308.15" y1="4177.12" x2="341.51" y2="4177.12" xlink:href="#linear-gradient"></linearGradient><linearGradient id="linear-gradient-3" x1="-131.95" y1="4441.94" x2="-52.59" y2="4430.44" gradientTransform="translate(-284.39 4674.77) rotate(8.32) scale(1 -1)" xlink:href="#linear-gradient"></linearGradient><linearGradient id="linear-gradient-4" x1="317.57" y1="4309.99" x2="304.87" y2="4301.27" xlink:href="#linear-gradient"></linearGradient><linearGradient id="linear-gradient-5" x1="1224.7" y1="4431.32" x2="1370.76" y2="4374.19" gradientTransform="translate(-1670.44 4471.96) rotate(8.32) scale(1 -1)" xlink:href="#linear-gradient"></linearGradient><linearGradient id="linear-gradient-6" x1="332.1" y1="4221.78" x2="334.8" y2="4243.69" xlink:href="#linear-gradient"></linearGradient><linearGradient id="linear-gradient-7" x1="-4696.89" y1="4213.61" x2="-4741.55" y2="4300.93" gradientTransform="translate(-4423.07 4546) rotate(-180)" xlink:href="#linear-gradient"></linearGradient><linearGradient id="linear-gradient-8" x1="-4598.63" y1="4294.42" x2="-4606.26" y2="4309.34" gradientTransform="translate(-6293.12 715.34) rotate(-145.05) scale(1 .96) skewX(-7.35)" xlink:href="#linear-gradient"></linearGradient><linearGradient id="linear-gradient-9" x1="1585.16" y1="3702.22" x2="1635.57" y2="3756.26" gradientTransform="translate(-192.61 4234.71) rotate(-14.8) scale(1 -1)" xlink:href="#linear-gradient"></linearGradient><linearGradient id="linear-gradient-10" x1="439.62" y1="4376.1" x2="449.94" y2="4311.91" xlink:href="#linear-gradient"></linearGradient><linearGradient id="linear-gradient-11" x1="966.64" y1="4399.09" x2="1133.01" y2="4334.02" gradientTransform="translate(-1050.71 4521) rotate(5.38) scale(1 -1)" xlink:href="#linear-gradient"></linearGradient><linearGradient id="linear-gradient-12" x1="401.62" y1="4180.47" x2="314" y2="4183.26" xlink:href="#linear-gradient"></linearGradient><linearGradient id="linear-gradient-13" x1="-794.82" y1="4330.27" x2="-744.4" y2="4384.31" gradientTransform="translate(-1743.74 4234.71) rotate(-165.2)" xlink:href="#linear-gradient"></linearGradient><linearGradient id="linear-gradient-14" x1="176.21" y1="4345.35" x2="203.98" y2="4341.49" xlink:href="#linear-gradient"></linearGradient><linearGradient id="linear-gradient-15" x1="-1483.89" y1="4167.58" x2="-1317.53" y2="4102.51" gradientTransform="translate(-885.63 4521) rotate(174.62)" xlink:href="#linear-gradient"></linearGradient><linearGradient id="linear-gradient-16" x1="184.48" y1="4345.57" x2="191.42" y2="4345.57" xlink:href="#linear-gradient"></linearGradient><linearGradient id="linear-gradient-17" x1="182.36" y1="4444.79" x2="183.48" y2="4410.19" gradientTransform="translate(-56 4546) scale(1 -1)" gradientUnits="userSpaceOnUse"><stop offset="0" stop-color="#fff"></stop><stop offset="1" stop-color="#fff" stop-opacity="0"></stop></linearGradient><linearGradient id="linear-gradient-18" x1="312.83" y1="4449" x2="313.95" y2="4414.4" xlink:href="#linear-gradient-17"></linearGradient><linearGradient id="linear-gradient-19" x1="443.31" y1="4453.21" x2="444.42" y2="4418.61" xlink:href="#linear-gradient-17"></linearGradient></defs><path class="cls-2" id="background" d="M472.47,251.59c-.44,1.13-.91,2.25-1.4,3.36-8.13,18.59-21.82,34.09-33.13,50.95-.3.44-.6.89-.9,1.34-.84,1.27-1.66,2.56-2.44,3.86-8.82,14.41-14.85,30.14-21.79,45.31-.38.84-.76,1.67-1.15,2.5-1.94,4.16-3.97,8.27-6.16,12.29-5.04,9.27-10.95,18.07-18.66,25.9-10.29,10.44-22.69,18.72-36.4,25.15-.37.18-.75.36-1.13.53-4.36,2.01-8.84,3.83-13.43,5.47-15.12,5.44-31.37,9.01-47.83,11.06-21.39,2.69-43.13,2.84-63.23,1.27-4.4-.34-8.71-.77-12.93-1.27-3.88-.46-7.69-.98-11.39-1.56-54.4-8.51-106.58-34.8-142.66-76.34-.63-.72-1.25-1.44-1.87-2.17-1.23-1.45-2.43-2.92-3.62-4.42-6.81-8.59-12.92-17.86-17.96-27.62-1.11-2.15-2.16-4.31-3.16-6.5-.99-2.15-1.91-4.32-2.77-6.51-1.31-3.31-2.48-6.67-3.51-10.06-3.51-11.55-5.32-23.53-4.89-35.66,1.02-28.5,14.87-56.32,37.03-74.28,11.01-8.92,23.77-15.4,36.62-21.39,48.67-22.69,100.55-39.56,144.8-69.99,22.93-15.73,39.6-36.45,68.37-41.78,29.93-5.54,61.55.52,88.27,15.1,26.72,14.58,48.59,37.37,63.77,63.76,19.34,33.64,27.69,75.76,13.55,111.7h0Z"></path><g id="chair"><path class="cls-21" d="M216.31,415.23c1.15-3.5,4.35-6.02,8.11-6.02h12.62v-44.6h2.86v44.6h12.62c3.76,0,6.95,2.52,8.11,6.01,1.3.19,2.3,1.34,2.3,2.74s-1.2,2.77-2.67,2.77-2.67-1.24-2.67-2.77c0-.92.43-1.73,1.1-2.23-.93-2.59-3.34-4.44-6.15-4.44h-17.78c-.15.17-.47.74-.76,2.03-.15.68-.26,2.05-.34,2.87.78.48,1.31,1.37,1.31,2.38,0,1.53-1.2,2.77-2.67,2.77s-2.67-1.24-2.67-2.77c0-1.31.88-2.41,2.06-2.69.13-1.3.37-3.4.82-4.58h-8.07c-2.81,0-5.21,1.84-6.14,4.41.68.5,1.13,1.33,1.13,2.26,0,1.53-1.2,2.77-2.67,2.77s-2.67-1.24-2.67-2.77c0-1.38.97-2.52,2.25-2.73h-.03Z"></path><path class="cls-24" d="M215.68,293.61c9.34,4.51,13.39,26.59,17.45,35.6,4.05,9.01,16.22,5.41,28.83,11.26,12.62,5.86,18.97,15.25,13.32,21.37-5.66,6.12-42.15,7.02-59.72,2.96-17.57-4.05-20.27-19.82-24.33-30.19-4.05-10.36-12.16-40.1-1.35-41.45,10.81-1.35,25.8.44,25.8.44h0Z"></path><path class="cls-1" d="M223.5,293.39c8.16,3.45,11.7,20.34,15.24,27.24,3.54,6.89,14.16,4.14,25.18,8.62,11.02,4.48,16.57,11.67,11.63,16.35-4.94,4.68-36.81,5.37-52.15,2.27s-17.71-15.17-21.25-23.1c-3.54-7.93-10.62-30.68-1.18-31.72s22.53.34,22.53.34h0Z"></path></g><g id="character_2"><path class="cls-23" d="M278.96,415.21c-.2.27-.45.52-.7.75-.69.62-1.46,1.16-2.34,1.47-2.05.72-4.31.12-6.38-.54-.51-.16-1.06-.37-1.32-.84-.29-.53-.08-1.19.13-1.76.53-1.42,1.05-2.84,1.58-4.26.33-.88.65-1.76.83-2.68.14-.69.4-1.44,1.05-1.85.31-.19.68-.23,1.05-.24,1.2-.03,2.41.19,3.44.82.45.27.89.61,1.23,1.01s.93.85,1.13,1.3c.09.2.09.42.1.64.02.89.14,1.78.35,2.65.21.89.53,1.83.26,2.71-.09.3-.24.57-.42.82h.01Z"></path><path class="cls-24" d="M280.86,412.27s6.13,6.41,10.16,7.15,5.08,1.22,4.83,3.55c-.26,2.32-9.27,1.4-11.24,1.26-1.97-.14-7.44-1.85-9.88-1.75s-7.82-.42-8.04-1.04c-.23-.61.08-6.02.76-6.83.68-.81.36,1.44,3.99,1.77,3.64.33,7.81-5.68,9.42-4.1h0Z"></path><path class="cls-21" d="M253.55,330.33c.97-1.37,2.39-2.42,4-2.91,4.41-1.34,8.94,1.49,12.46,4.46,5.68,4.8,13.04,10.96,14.55,18.48.96,4.76,1.03,9.63.9,14.47-.31,11.64-1.83,23.26-3.59,34.75-.1.64-2.08,11.03-1.85,11.11l-9.87-1.28c.44-8.61.66-17.26.52-25.88-.08-4.72,0-9.75-1.15-14.36-.96-3.82-3.97-6.8-6.13-10.09-2.57-3.91-4.91-7.97-7.01-12.15-.76-1.5-1.48-3.03-2.17-4.56-1.42-3.14-2.72-6.65-1.7-9.94.23-.75.59-1.46,1.04-2.1h0Z"></path><path class="cls-14" d="M253.55,330.33c.97-1.37,2.39-2.42,4-2.91,4.41-1.34,8.94,1.49,12.46,4.46,5.68,4.8,13.04,10.96,14.55,18.48.96,4.76,1.03,9.63.9,14.47-.31,11.64-1.83,23.26-3.59,34.75-.1.64-2.08,11.03-1.85,11.11l-9.87-1.28c.44-8.61.66-17.26.52-25.88-.08-4.72,0-9.75-1.15-14.36-.96-3.82-3.97-6.8-6.13-10.09-2.57-3.91-4.91-7.97-7.01-12.15-.76-1.5-1.48-3.03-2.17-4.56-1.42-3.14-2.72-6.65-1.7-9.94.23-.75.59-1.46,1.04-2.1h0Z"></path><path class="cls-23" d="M264.12,269.06c-.4-.5-.87-1.05-1.51-1.1-.36-.02-.7.12-1.02.28-3.01,1.51-4.95,4.71-5.47,8.04-.22,1.43-.21,2.94.37,4.26.58,1.32,1.67,2.34,2.73,3.31,2.9,2.68,5.8,5.36,8.7,8.04.68.63,1.41,1.29,2.33,1.44,1,.17,2-.29,2.82-.89,2.1-1.54,3.44-4.06,3.55-6.66.27-6.77-8.69-11.94-12.49-16.74v.02Z"></path><path class="cls-24" d="M244.97,252.68c3.21,2.42,6.42,4.85,9.62,7.27,2.34,1.77,4.67,3.53,7.01,5.3,1.59,1.2,3.54,2.23,4.35,4.03,2.34,5.22-.91,9.62-5.64,11.88-.52.25-1.06.48-1.62.6-2.71.59-5.49-1.08-7.2-3.04-.77-.89-1.93-1.78-2.43-2.85-.46-.99-.34-2.17-.53-3.22-1.03-5.78-2.06-11.56-3.09-17.34-.16-.87-.31-1.75-.47-2.62h0Z"></path><path class="cls-15" d="M244.61,252.63c3.21,2.42,6.42,4.85,9.62,7.27,2.34,1.77,4.67,3.53,7.01,5.3,1.59,1.2,3.54,2.23,4.35,4.03,2.34,5.22-.91,9.62-5.64,11.88-.52.25-1.06.48-1.62.6-2.71.59-5.49-1.08-7.2-3.04-.77-.89-1.93-1.78-2.43-2.85-.46-.99-.34-2.17-.53-3.22-1.03-5.78-2.06-11.56-3.09-17.34-.16-.87-.31-1.75-.47-2.62h0Z"></path><path class="cls-21" d="M259.84,248.19c-.11,2.56-.4,5.32-2.12,7.23-.51.57-1.18,1.05-1.94,1.15-1.47.18-2.68-1.06-3.63-2.19-1.26-1.5-2.61-3.33-2.15-5.24.3-1.23,1.28-2.15,2.26-2.95,1.86-1.52,3.86-2.86,5.85-4.19,1.28-.86,2.54-1.16,2.42.57-.13,1.87-.62,3.72-.7,5.63h0Z"></path><path class="cls-23" d="M270.2,395.95c-.2.27-.45.52-.7.75-.69.62-1.46,1.16-2.34,1.47-2.05.72-4.31.12-6.38-.54-.51-.16-1.06-.37-1.32-.84-.29-.53-.08-1.19.13-1.76.53-1.42,1.05-2.84,1.58-4.26.33-.88.65-1.76.83-2.68.14-.69.4-1.44,1.05-1.85.31-.19.68-.23,1.05-.24,1.2-.03,2.41.19,3.44.82.45.27.89.61,1.23,1.01s.93.85,1.13,1.3c.09.2.09.42.1.64.02.89.14,1.78.35,2.65.21.89.53,1.83.26,2.71-.09.3-.24.57-.42.82h.01Z"></path><path class="cls-24" d="M272.1,393.01s6.13,6.41,10.16,7.15,5.08,1.22,4.83,3.55c-.26,2.32-9.27,1.4-11.24,1.26-1.97-.14-7.44-1.85-9.88-1.75s-7.82-.42-8.04-1.04c-.23-.61.08-6.02.76-6.83.68-.81.36,1.44,3.99,1.77,3.64.33,7.81-5.68,9.42-4.1h0Z"></path><path class="cls-21" d="M221.76,311.33c-.08,0-.23,1.47-.24,1.56-1.04,8.2.91,19.29,8.82,23.49,5.53,2.94,12.56,3.98,18.72,4.63,6.5.68,13.09.55,19.56-.43-1.68,15.94-6.32,31.57-6.57,47.6,2.65.54,5.3,1.08,7.94,1.62.59,0,2.76-5.49,3.09-6.18,1.03-2.2,2.01-4.43,2.93-6.68,1.79-4.39,3.35-8.86,4.69-13.4,2.69-9.12,3.96-18.43,5.81-27.72.58-2.91,1.13-6.09-.25-8.71-.94-1.79-2.65-3.04-4.36-4.12-4.24-2.67-8.93-4.31-13.4-6.47-4.68-2.26-9.35-4.52-14.03-6.79l-32.71,1.62v-.02Z"></path><path class="cls-23" d="M270.06,238.18c-.24,1.57-1.88,2.44-3.05,3.5-1.64,1.49-2.53,3.66-4.16,5.16-.34.32-.74.62-1.2.69-.4.07-.8-.03-1.18-.14-1.52-.44-2.97-1.11-4.29-1.97-.18-.12-.37-.24-.56-.3-.1-.03-.2-.04-.31-.03-.31.04-.54.28-.74.51-.57.65-1.1,1.33-1.59,2.04-1.83,2.6-3.16,5.55-3.9,8.64-.31,1.3-.72,2.86-2,3.24-.45.13-.92.08-1.37-.04-2.98-.76-4.48-4.07-5.16-7.07-.61-2.68-.91-5.43-.88-8.18,0-.78.05-1.57.33-2.3.35-.93,1.07-1.68,1.75-2.41,2.29-2.48,4.33-5.19,6.07-8.08,2.23-3.7,4.07-7.81,7.42-10.55,1.11-.92,2.44-1.68,3.89-1.74,1.59-.06,3.08.73,4.45,1.53,2.71,1.59,5.55,3.59,6.35,6.63.23.87-.72,5.39-.64,7.02.06,1.32.96,2.54.77,3.85h0Z"></path><path class="cls-13" d="M255.62,245.12c-.1-.03-.2-.04-.31-.03-.31.04-.54.28-.74.51-.57.65-1.1,1.33-1.59,2.04l-.03.03c-2.3-3-.65-11.04-.65-11.04.84,6.84,3.16,8.29,3.32,8.49h0Z"></path><path class="cls-24" d="M252.11,312.96c-2.12,1.61-4.86,2.19-7.47,2.75-1.9.39-3.85.69-5.8,1.02-2.8.45-5.58.97-8.2,1.82-2.8.47-4.89.83-6.46,1.08-3.32.55-4.24.66-4.35.64.11-.06.47-.15.47-.15,0,0-.32-4.13-.79-9.91-.86-10.65-2.25-26.85-3.24-32.98-.41-2.59-.03-6.78,1.01-11.43,1.19-5.37,2.57-11.28,6.47-15.41,5.46-5.77,12.24-4.18,18.92-1.52.41.16.82.33,1.16.6.55.45.85,1.12,1.16,1.75.86,1.77,2.03,3.5,3.81,4.35,1.29.61,2.83.76,3.9,1.79.97.93,1.66,2.52,2.3,3.68,1.64,2.96,2.73,6.13,2.25,9.56-1.23,9.05-6.23,16.95-6.87,26.42-.1,1.38-.14,2.81.43,4.05.83,1.87,2.84,2.99,3.67,4.84,1.12,2.44-.24,5.42-2.37,7.05Z"></path><path class="cls-19" d="M238.23,309.11c1.05,2.37,1.56,5.41.61,7.63-.35.81-.89,1.54-1.69,2.05-1.13.74-2.55.9-3.9,1-3.02.23-6.05.19-9.07-.15-1.07-.1-2.14-.25-3.2-.43.49-2.95-.23-5.96-1.47-8.99-.86-10.65-2.25-26.85-3.24-32.98-.41-2.59-.03-6.78,1.01-11.43,1.93-1.95,3.69-3.86,4.68-5.68.93-1.65,2.35-3.43,4.25-3.28,1.67.13,2.83,1.71,3.68,3.17,5.25,9.19,8.49,20.08,12.86,29.75.19.44.4.9.27,1.37-.13.49-.61.81-1.06,1.08-2.74,1.68-5.69,3.72-6.42,6.85-.82,3.45,1.26,6.8,2.69,10.03h0Z"></path><path class="cls-23" d="M221.51,300.35c3.99.79,8.1.53,12.12.09,1.71-.19,3.42-.24,5.11-.48s3.29-.76,4.97-.56c1.79.21,3.37,1.23,5.09,1.76,1.02.32,2.36.34,2.9-.58.3-.52.22-1.19-.05-1.72s-.71-.96-1.14-1.38c-.95-.92-1.91-1.85-3.09-2.43-2.11-1.04-4.58-.82-6.93-.83-5.58-.03-10.47-1.63-15.34-4.17-.6-.31-8.14-4.28-8.32-3.83.35-.87,1.02-1.56,1.5-2.37s.74-1.87.23-2.65c-.37-.57-1.06-.83-1.7-1.05-2.09-.7-4.24-1.23-6.42-1.57-1.34-.21-2.72-.35-4.03.01-2.42.68-3.13,2.76-4.44,4.59-1,1.39-1.67,3.21-1.6,4.95.07,1.55,1.23,2.78,2.45,3.7s2.5,1.53,3.81,2.19c4.83,2.44,9.58,5.27,14.89,6.33h0Z"></path><path class="cls-24" d="M234.16,264.5s-13.3,19.4-13.68,21.64-18.35-6.25-18.35-6.25c0,0,10.99-21.61,18.89-26.54,7.9-4.93,16.62.9,13.15,11.15h0Z"></path><path class="cls-21" d="M270.24,226.25c-1.16,1.77-3.08,2.97-5.12,3.53-6.75,1.83-12.7,2.26-16.21,9.46-2.39,4.91-2.07,11.04.83,15.67-4.62-1.54-8.72-4.59-11.51-8.58-1.9-.05-3.89-.11-5.56-1.02-1.67-.9-2.91-2.93-2.28-4.72-1.13.53-2.47.57-3.63.12-1.45-3.25-.19-7.12,1.89-10,2.08-2.88,4.91-5.14,7.16-7.89,6.15-7.55,15.06-12.66,25.22-10.3,5.54,1.29,13.38,7.39,9.22,13.74h-.01Z"></path></g><g id="laptop"><path class="cls-24" d="M315.43,305.19l17.87-41.62c.63-1.47-.45-3.11-2.05-3.11h-52.38c-.87,0-1.67.51-2.03,1.3l-17.79,39.01c-.36.79-1.16,1.3-2.03,1.3h-26.03c-1.21,0-2.2.96-2.23,2.17h0c-.03,1.25.97,2.29,2.23,2.29h82.38c.89,0,1.7-.53,2.05-1.35h.01Z"></path><path class="cls-20" d="M315.43,305.19l17.87-41.62c.63-1.47-.45-3.11-2.05-3.11h-52.38c-.87,0-1.67.51-2.03,1.3l-17.79,39.01c-.36.79-1.16,1.3-2.03,1.3h-26.03c-1.21,0-2.2.96-2.23,2.17h0c-.03,1.25.97,2.29,2.23,2.29h82.38c.89,0,1.7-.53,2.05-1.35h.01Z"></path><path class="cls-18" d="M262.8,303.78l19.8-42.18c.32-.69,1.03-1.13,1.8-1.13h47.1c1.42,0,2.38,1.42,1.83,2.71l-17.84,41.36c-.31.71-1.01,1.18-1.8,1.19l-49.05.82c-1.46.02-2.45-1.46-1.84-2.77Z"></path><ellipse class="cls-16" cx="300.05" cy="284.72" rx="6.46" ry="5.63" transform="translate(-108.99 223.24) rotate(-34.95)"></ellipse></g><g id="character_3"><path class="cls-23" d="M400.19,410.66s-1.48,9.71-.68,10.82c.8,1.11,5.46.74,8.33.1,2.87-.64,3.57-4.35,3.57-4.35l.2-3.06-11.42-3.51Z"></path><path class="cls-23" d="M359.78,405.77s-2.1,13.54-1.41,14.72c.69,1.18,5.85-1.71,8.77-2.07,2.92-.36,3.19-5.04,3.19-5.04l.49-3.03-11.04-4.58h0Z"></path><path class="cls-21" d="M370.5,290.56l-.42,1.42c-3.69,12.6-5.53,25.66-5.44,38.79l.05,8.57-6.47,68.66s6.57,3.71,14.33,3.81l11.86-70.36,6.4-21.66,5.99,27.41,2.14,65.9s5.48.11,12.59.75l4.61-71.52-10.42-61.79-35.22,10.01h0Z"></path><path class="cls-24" d="M412.57,414.55s6.47,7.02,10.71,7.77,5.34,1.26,5.09,3.86c-.26,2.59-9.72,1.74-11.79,1.62s-7.82-1.92-10.38-1.76-8.21-.32-8.45-1c-.24-.68.05-6.71.75-7.62.71-.91.38,1.59,4.2,1.89,3.82.3,8.16-6.47,9.86-4.75h.01Z"></path><path class="cls-24" d="M372.16,414.6s6.76,7.08,11.22,7.9c4.45.82,5.61,1.35,5.33,3.92s-10.23,1.55-12.41,1.39-8.21-2.05-10.9-1.94-8.63-.47-8.88-1.15.09-6.65.83-7.54c.75-.89.39,1.59,4.41,1.95,4.02.36,8.62-6.27,10.4-4.53h0Z"></path><g id="character"><path class="cls-23" d="M442.28,193.68c-.03-.06-.05-.12-.07-.18-.73-1.8-1.53-3.71-1.17-5.7.23-1.25.91-2.37,1.38-3.56.76-1.91.99-3.98,1.25-6.02.03-.25.07-.52.2-.74.25-.4.77-.55,1.23-.49,1.19.14,1.96,1.29,2.53,2.33s1.24,2.22,2.4,2.5c.77.18,1.57-.08,2.36,0,1.48.17,2.57,1.64,2.73,3.12s-.6,2.6-.98,4.01-.56,2.76-1.04,4.13c-3.2,9.15-6.39,18.31-9.59,27.46l-3,8.58c-.99,2.82-2.03,5.74-4.09,7.9-2.07,2.16-5.46,3.35-8.12,1.98-1.76-.9-2.89-2.77-3.25-4.72-.37-1.94-.06-3.96.48-5.86,1.8-6.35,6.01-11.67,9.76-17.1,2.71-3.94,5.65-7.88,7.27-12.43.29-.82.78-1.69.7-2.56s-.61-1.85-.97-2.68v.02Z"></path><rect class="cls-24" x="433.68" y="181.21" width="23.67" height="14.29" rx="2.34" ry="2.34" transform="translate(12.09 403.06) rotate(-49.27)"></rect><rect class="cls-22" x="436.61" y="182.2" width="18.54" height="11.39" rx=".56" ry=".56" transform="translate(12.56 403.18) rotate(-49.27)"></rect><path class="cls-23" d="M410.28,222.02c-.68-.19-1.46-.38-2.06,0-.33.21-.55.56-.73.91-1.72,3.29-1.38,7.42.3,10.73.72,1.42,1.71,2.76,3.09,3.57,1.37.8,3,1.01,4.58,1.21,4.33.53,8.66,1.05,12.99,1.58,1.02.12,2.1.24,3.02-.21,1.01-.49,1.6-1.56,1.95-2.62.89-2.73.46-5.86-1.13-8.25-4.13-6.24-15.49-5.07-22-6.9v-.02Z"></path><path class="cls-24" d="M393.84,209.51c3.89,2.14,7.78,4.27,11.68,6.41,2.84,1.56,5.67,3.11,8.51,4.67,1.93,1.06,4.22,1.87,5.39,3.71,1.74,2.73,1.93,5.92,1.58,9.07-.38,3.38-1.25,6.78-.76,10.15-.18-1.22-4.74-2.91-5.75-3.34-2.16-.93-4.4-1.66-6.57-2.57-1.76-.74-4.79-1.76-5.9-3.41-.55-.82-.77-2.47-1.09-3.43-2.05-6.15-4.1-12.3-6.15-18.45-.31-.93-.62-1.86-.93-2.79v-.02Z"></path><path class="cls-17" d="M393.84,209.51c3.89,2.14,7.78,4.27,11.68,6.41,2.84,1.56,5.67,3.11,8.51,4.67,1.93,1.06,4.22,1.87,5.39,3.71,1.74,2.73,1.93,5.92,1.58,9.07-.38,3.38-1.25,6.78-.76,10.15-.18-1.22-4.74-2.91-5.75-3.34-2.16-.93-4.4-1.66-6.57-2.57-1.76-.74-4.79-1.76-5.9-3.41-.55-.82-.77-2.47-1.09-3.43-2.05-6.15-4.1-12.3-6.15-18.45-.31-.93-.62-1.86-.93-2.79v-.02Z"></path><path class="cls-21" d="M397.42,201.73c.55,2.78.95,5.82-.4,8.31-.4.74-.99,1.43-1.78,1.73-1.53.58-3.15-.44-4.46-1.41-1.74-1.29-3.66-2.9-3.66-5.07,0-1.39.82-2.64,1.66-3.75,1.6-2.11,3.4-4.06,5.19-6.02,1.15-1.25,2.43-1.9,2.74,0,.34,2.04.3,4.15.71,6.23h0Z"></path><path class="cls-23" d="M391.19,198.26s-2.14,7.05-.61,10.05c1.53,3-11.2-4.47-11.2-4.47l1.74-12.35,2.54-1.67,7.53,8.44Z"></path><path class="cls-6" d="M384.21,191.09s-.27,9.09,6.03,11.52l.95-4.64-6.98-6.88Z"></path><path class="cls-23" d="M403.97,184.42c.41,1.4,1.69,2.48,1.82,3.93.16,1.74-1.38,3.1-2.36,4.55-1.37,2.02-1.77,4.58-3.12,6.61-.29.43-.64.85-1.11,1.06-.41.17-.86.17-1.3.15-7.73-.35-13.34-6.38-16.23-13.21-1.79-4.23,1.16-10.45,3.75-13.88.96-1.27,2.19-2.44,3.72-2.87,1.69-.48,3.49,0,5.18.49,3.32,1,6.89,2.41,8.53,5.46.47.88.63,5.98,1.13,7.7h-.01Z"></path><path class="cls-24" d="M409.81,281.05c.51,3.19-.39,6.8-3.2,8.3-1.08.58-2.32.77-3.53.96-9.68,1.5-19.65,2.99-29.19.76-1.95-.45-4.07-1.24-4.91-3.06-.95-2.06-.32-5.03-.62-7.28-1.55-11.69-4.01-29.47-5.44-36.18-.59-2.83-.42-7.47.46-12.66,2.35-13.69,9.51-31.2,19.43-29.1,0,0,13.5,8.68,17.25,14.83,3.43,5.66,8.26,10.13,7.65,17.31-1.02,12.01-7.99,23.49-2.64,35.51,1.44,3.23,3.58,6.16,4.5,9.57.09.34.17.69.22,1.05h.02Z"></path><path class="cls-3" d="M388.95,278.44c.29.69.61,1.36.81,1.96.68,2.02,1.05,4.37.29,6.42-.34.92-.9,1.75-1.75,2.35-1.2.88-2.76,1.14-4.24,1.32-3.31.42-6.66.56-10,.35-1.18-.05-2.38-.16-3.55-.29.37-3.28-.59-6.56-2.13-9.83-1.55-11.69-4.01-29.47-5.44-36.18-.59-2.83-.42-7.47.46-12.66,2.02-2.26,3.84-4.46,4.84-6.52.93-1.87,2.39-3.91,4.5-3.86,1.85.04,3.22,1.73,4.23,3.29,6.31,9.83,10.49,21.66,15.87,32.08.59,1.19.72,1.86,2.14,2.31,1.14.36,2.4.32,3.57.2,1.49-.15,2.98-.38,4.45-.67.19,1.91.12,3.84-.19,5.74-.1.57-.22,1.15-.55,1.62-.27.38-.65.67-1.03.93-3.63,2.54-7.93,4.02-11.55,6.58-.43.3-.87.64-1.09,1.12-.56,1.17-.14,2.51.38,3.75h-.02Z"></path><path class="cls-23" d="M395.99,264.57c2.74-1.31,5.23-3.09,7.55-5.04,2.32-1.95,3.81-2.17,6.97-1.71,3.25.48,6.56.58,9.84.32,1.13-.09,2.5-.44,2.77-1.53,1,.31,2.15.08,2.96-.58.37-.3.66-.68,1.05-.95,1.22-.85,3.13-.51,4.06-1.66.15-.18.26-.41.26-.64,0-.78-1.07-.98-1.85-.96-4.16.1-8.34-.62-12.23-2.1-.73-.28-1.61-.94-1.28-1.65.21-.45.81-.58,1.08-.99.42-.62-.18-1.52-.92-1.67s-1.47.18-2.15.51c-7.06,3.42-13.95,5.9-21.7,7.14-.73.12-10.03,1.58-9.9,2.1-.27-1-.13-2.06-.23-3.09-.1-1.03-.58-2.15-1.55-2.5-.71-.25-1.49-.04-2.2.19-2.31.76-4.56,1.71-6.72,2.84-1.32.69-2.64,1.49-3.56,2.67-1.69,2.19-.94,4.51-.9,6.99.03,1.89.64,3.94,1.85,5.43,1.08,1.33,2.93,1.65,4.61,1.67,1.62.02,3.22-.29,4.82-.57,5.89-1.02,11.96-1.65,17.35-4.22h.02Z"></path><path class="cls-24" d="M383.54,224.48s1.02,25.95,2.16,28.19c1.14,2.24-20.37,6.57-20.37,6.57,0,0-4.53-26.38-.79-35.96,3.74-9.58,15.31-10.17,19,1.2h0Z"></path><path class="cls-21" d="M401.45,175.85c-.79,2.2-2.53,3.99-4.59,5.12-6.77,3.71-13.04,5.72-14.94,14.35-1.29,5.89.64,12.38,4.95,16.6-5.35-.45-10.55-2.67-14.58-6.22-2.05.44-4.2.89-6.23.35s-3.88-2.39-3.67-4.48c-1.07.86-2.5,1.25-3.86,1.06-2.39-3.11-2.05-7.59-.56-11.23,1.49-3.63,3.94-6.79,5.64-10.33,4.65-9.69,12.88-17.49,24.39-17.59,6.28-.05,16.27,4.46,13.45,12.35v.02Z"></path></g></g><g id="table"><polygon class="cls-24" points="333.5 305.73 333.49 305.73 294.51 305.73 244.97 305.73 244.97 311.99 294.51 311.99 294.51 423.32 333.49 423.32 333.49 311.99 333.5 311.99 333.5 305.73"></polygon><polygon class="cls-4" points="333.5 305.73 333.49 305.73 294.51 305.73 244.97 305.73 244.97 311.99 294.51 311.99 294.51 423.32 333.49 423.32 333.49 311.99 333.5 311.99 333.5 305.73"></polygon><rect class="cls-24" x="300.65" y="305.73" width="38.98" height="117.59"></rect></g><g id="character_1"><path class="cls-23" d="M124.89,411.39s1.48,9.71.68,10.82c-.8,1.11-5.46.74-8.33.1-2.87-.64-3.57-4.35-3.57-4.35l-.2-3.06,11.42-3.51Z"></path><path class="cls-23" d="M165.31,406.5s2.1,13.54,1.41,14.72c-.69,1.18-5.85-1.71-8.77-2.07-2.92-.36-3.19-5.04-3.19-5.04l-.49-3.03,11.04-4.58h0Z"></path><path class="cls-21" d="M154.58,291.28l.42,1.42c3.69,12.6,5.53,25.66,5.44,38.79l-.05,8.57,6.47,68.66s-6.57,3.71-14.33,3.81l-11.86-70.36-6.4-21.66-5.99,27.41-2.14,65.9s-5.48.11-12.59.75l-4.61-71.52,10.42-61.79,35.22,10.01h0Z"></path><path class="cls-24" d="M112.52,415.28s-6.47,7.02-10.71,7.77-5.34,1.26-5.09,3.86c.26,2.59,9.72,1.74,11.79,1.62s7.82-1.92,10.38-1.76,8.21-.32,8.45-1c.24-.68-.05-6.71-.75-7.62-.71-.91-.38,1.59-4.2,1.89-3.82.3-8.16-6.47-9.86-4.75h0Z"></path><path class="cls-24" d="M152.93,415.33s-6.76,7.08-11.22,7.9c-4.45.82-5.61,1.35-5.33,3.92.28,2.57,10.23,1.55,12.41,1.39,2.17-.16,8.21-2.05,10.9-1.94,2.69.11,8.63-.47,8.88-1.15s-.09-6.65-.83-7.54c-.75-.89-.39,1.59-4.41,1.95-4.02.36-8.62-6.27-10.4-4.53h0Z"></path><g id="character-2"><path class="cls-23" d="M112.38,196.69c.06-.03.11-.06.17-.08,1.73-.89,3.59-1.81,4.6-3.56.64-1.1.86-2.39,1.27-3.6.67-1.94,1.85-3.66,2.98-5.38.14-.21.29-.44.33-.69.07-.46-.22-.91-.61-1.18-.99-.67-2.32-.3-3.44.12s-2.39.88-3.46.33c-.7-.36-1.14-1.09-1.79-1.53-1.24-.84-3.02-.43-4.11.59-1.09,1.02-1.24,2.36-1.88,3.67-.64,1.31-1.37,2.45-1.91,3.81-3.55,9.02-7.1,18.05-10.65,27.07-1.11,2.82-2.22,5.64-3.33,8.46-1.09,2.78-2.21,5.67-2.05,8.66.16,2.98,1.96,6.1,4.86,6.8,1.92.46,4-.22,5.54-1.45,1.55-1.23,2.63-2.96,3.46-4.75,2.78-5.98,3.06-12.77,3.77-19.32.51-4.75.86-9.66,2.6-14.16.31-.81.52-1.79,1.15-2.4s1.67-1,2.49-1.4h.01Z"></path><rect class="cls-24" x="108" y="174.35" width="14.29" height="23.67" rx="2.34" ry="2.34"></rect><rect class="cls-22" x="109.46" y="176.33" width="11.39" height="18.54" rx=".56" ry=".56"></rect><path class="cls-23" d="M114.8,222.74c.68-.19,1.46-.38,2.06,0,.33.21.55.56.73.91,1.72,3.29,1.38,7.42-.3,10.73-.72,1.42-1.71,2.76-3.09,3.57-1.37.8-3,1.01-4.58,1.21-4.33.53-8.66,1.05-12.99,1.58-1.02.12-2.1.24-3.02-.21-1.01-.49-1.6-1.56-1.95-2.62-.89-2.73-.46-5.86,1.13-8.25,4.13-6.24,15.49-5.07,22-6.9v-.02Z"></path><path class="cls-24" d="M131.25,210.24c-3.89,2.14-7.78,4.27-11.68,6.41-2.84,1.56-5.67,3.11-8.51,4.67-1.93,1.06-4.22,1.87-5.39,3.71-1.74,2.73-1.93,5.92-1.58,9.07.38,3.38,1.25,6.78.76,10.15.18-1.22,4.74-2.91,5.75-3.34,2.16-.93,4.4-1.66,6.57-2.57,1.76-.74,4.79-1.76,5.9-3.41.55-.82.77-2.47,1.09-3.43,2.05-6.15,4.1-12.3,6.15-18.45.31-.93.62-1.86.93-2.79v-.02Z"></path><path class="cls-5" d="M131.25,210.24c-3.89,2.14-7.78,4.27-11.68,6.41-2.84,1.56-5.67,3.11-8.51,4.67-1.93,1.06-4.22,1.87-5.39,3.71-1.74,2.73-1.93,5.92-1.58,9.07.38,3.38,1.25,6.78.76,10.15.18-1.22,4.74-2.91,5.75-3.34,2.16-.93,4.4-1.66,6.57-2.57,1.76-.74,4.79-1.76,5.9-3.41.55-.82.77-2.47,1.09-3.43,2.05-6.15,4.1-12.3,6.15-18.45.31-.93.62-1.86.93-2.79v-.02Z"></path><path class="cls-21" d="M123.43,199.38c-1.38,2.47-2.7,5.24-2.18,8.03.16.83.5,1.67,1.16,2.2,1.27,1.02,3.13.55,4.68.03,2.06-.69,4.38-1.63,5.04-3.7.43-1.33.03-2.76-.43-4.08-.88-2.5-1.98-4.91-3.09-7.32-.71-1.54-1.72-2.56-2.61-.86-.95,1.83-1.56,3.86-2.59,5.71h.02Z"></path><path class="cls-12" d="M124.41,199.77c-1.12,2.3-1.56,5.09-.5,7.41.26-1.03.65-2.03,1.13-2.97-.12.79-.18,1.6-.19,2.4,0,.2,0,.4.09.58.2.4.73.49,1.18.47,1.3-.07,2.56-.69,3.41-1.68.85-.99,1.26-2.33,1.13-3.63-.07-.65-.26-1.27-.46-1.89-.33-1.04-.66-2.09-1.2-3.03-.32-.56-.72-1.08-1.21-1.5-.22-.19-.51-.46-.79-.55-.44-.14-.38,0-.55.42-.54,1.4-1.4,2.63-2.05,3.97h.01Z"></path><path class="cls-23" d="M145.72,204.95c-.16.84-.58,1.61-1.02,2.35-1.56,2.6-3.43,5.02-5.55,7.19-2.37,2.43-5.7,4.68-8.94,3.68-.49-.15-.96-.38-1.3-.76-1-1.09-.48-2.8-.02-4.2.96-2.94,1.42-6.05,1.36-9.15-.02-1.36-.15-2.72-.37-4.07-.06-.33-.13-.69-.4-.91-.27-.21-.65-.2-1-.19-1.75.05-3.5-.16-5.18-.62-.43-.11-.86-.26-1.19-.55-.4-.34-.6-.84-.74-1.34-.66-2.36-.25-4.91-.94-7.26-.48-1.68-1.53-3.44-.84-5.05.57-1.34,2.13-1.98,2.94-3.18,1.01-1.49,2.73-6.29,3.45-6.98,2.51-2.4,6.33-2.64,9.8-2.57,1.76.03,3.62.15,5.08,1.12,1.32.89,2.14,2.37,2.66,3.88,1.56,4.52.92,9.44.89,14.22-.03,3.72.32,7.45,1.05,11.1.21,1.09.46,2.2.26,3.29h0Z"></path><path class="cls-24" d="M115.28,281.78c-.51,3.19.39,6.8,3.2,8.3,1.08.58,2.32.77,3.53.96,9.68,1.5,19.65,2.99,29.19.76,1.95-.45,4.07-1.24,4.91-3.06.95-2.06.32-5.03.62-7.28,1.55-11.69,4.01-29.47,5.44-36.18.59-2.83.42-7.47-.46-12.66-2.35-13.69-9.51-31.2-19.43-29.1,0,0-13.5,8.68-17.25,14.83-3.43,5.66-8.26,10.13-7.65,17.31,1.02,12.01,7.99,23.49,2.64,35.51-1.44,3.23-3.58,6.16-4.5,9.57-.09.34-.17.69-.22,1.05h-.02Z"></path><path class="cls-10" d="M136.14,279.17c-.29.69-.61,1.36-.81,1.96-.68,2.02-1.05,4.37-.29,6.42.34.92.9,1.75,1.75,2.35,1.2.88,2.76,1.14,4.24,1.32,3.31.42,6.66.56,10,.35,1.18-.05,2.38-.16,3.55-.29-.37-3.28.59-6.56,2.13-9.83,1.55-11.69,4.01-29.47,5.44-36.18.59-2.83.42-7.47-.46-12.66-2.02-2.26-3.84-4.46-4.84-6.52-.93-1.87-2.39-3.91-4.5-3.86-1.85.04-3.22,1.73-4.23,3.29-6.31,9.83-10.49,21.66-15.87,32.08-.59,1.19-.72,1.86-2.14,2.31-1.14.36-2.4.32-3.57.2-1.49-.15-2.98-.38-4.45-.67-.19,1.91-.12,3.84.19,5.74.1.57.22,1.15.55,1.62.27.38.65.67,1.03.93,3.63,2.54,7.93,4.02,11.55,6.58.43.3.87.64,1.09,1.12.56,1.17.14,2.51-.38,3.75h.02Z"></path><path class="cls-23" d="M129.1,265.29c-2.74-1.31-5.23-3.09-7.55-5.04s-3.81-2.17-6.97-1.71c-3.25.48-6.56.58-9.84.32-1.13-.09-2.5-.44-2.77-1.53-1,.31-2.15.08-2.96-.58-.37-.3-.66-.68-1.05-.95-1.22-.85-3.13-.51-4.06-1.66-.15-.18-.26-.41-.26-.64,0-.78,1.07-.98,1.85-.96,4.16.1,8.34-.62,12.23-2.1.73-.28,1.61-.94,1.28-1.65-.21-.45-.81-.58-1.08-.99-.42-.62.18-1.52.92-1.67s1.47.18,2.15.51c7.06,3.42,13.95,5.9,21.7,7.14.73.12,10.03,1.58,9.9,2.1.27-1,.13-2.06.23-3.09.1-1.03.58-2.15,1.55-2.5.71-.25,1.49-.04,2.2.19,2.31.76,4.56,1.71,6.72,2.84,1.32.69,2.64,1.49,3.56,2.67,1.69,2.19.94,4.51.9,6.99-.03,1.89-.64,3.94-1.85,5.43-1.08,1.33-2.93,1.65-4.61,1.67-1.62.02-3.22-.29-4.82-.57-5.89-1.02-11.96-1.65-17.35-4.22h-.02Z"></path><path class="cls-24" d="M141.55,225.21s-1.02,25.95-2.16,28.19,20.37,6.57,20.37,6.57c0,0,4.53-26.38.79-35.96-3.74-9.58-15.31-10.17-19,1.2h0Z"></path><path class="cls-21" d="M127.56,173.51c.07,2.34,1.18,4.58,2.79,6.28,5.29,5.62,10.65,9.45,9.8,18.26-.58,6-4.42,11.58-9.82,14.27,5.23,1.22,10.85.71,15.79-1.43,1.82,1.06,3.72,2.14,5.82,2.25,2.1.12,4.43-1.07,4.87-3.13.76,1.14,1.99,1.96,3.35,2.2,3.24-2.22,4.29-6.59,3.99-10.51-.3-3.91-1.66-7.67-2.18-11.56-1.44-10.65-6.87-20.61-17.79-24.25-5.96-1.98-16.85-.76-16.6,7.61h-.02Z"></path></g><path class="cls-8" d="M135.42,196.81c-.41,3.12-3.06,5.68-5.17,7.25-.02-1.36-.15-2.72-.37-4.07-.06-.33-.13-.69-.4-.91-.27-.21-.65-.2-1-.19,2.87-.11,4.75-1.15,4.75-1.15.74,0,1.61-.48,2.19-.93h0Z"></path></g><g id="process"><rect class="cls-24" x="128.48" y="111.17" width="260.27" height="3.48"></rect><circle class="cls-24" cx="126.75" cy="113.39" r="10.13"></circle><circle class="cls-7" cx="126.75" cy="113.39" r="6.91"></circle><circle class="cls-24" cx="257.36" cy="113.39" r="10.13"></circle><circle class="cls-24" cx="387.97" cy="113.39" r="10.13"></circle><circle class="cls-11" cx="257.36" cy="113.39" r="6.91"></circle><circle class="cls-9" cx="387.97" cy="113.39" r="6.91"></circle></g></svg>